<svg width="48" height="48" viewBox="0 0 48 48" fill="none" xmlns="http://www.w3.org/2000/svg">
<g clip-path="url(#clip0_1151_13929)">
<rect width="48" height="48" rx="24" transform="matrix(4.37114e-08 -1 -1 -4.37114e-08 48 48)" fill="#FFE793"/>
<path d="M42.7547 27.307C41.2677 27.6308 39.0856 27.4136 36.2815 26.6634C34.2003 26.1101 32.5291 25.4434 32.5123 25.439C32.4344 25.4077 32.3857 25.3297 32.3916 25.2479C32.4111 24.8652 32.9025 15.8682 35.9424 13.9982C36.8559 13.4369 37.8289 13.0398 38.8253 12.8228C40.4784 12.4627 42.1447 12.5991 43.6481 13.2218C45.1423 13.8385 46.368 14.8922 47.1969 16.2658C48.216 17.9684 48.4786 19.9726 47.9395 21.926C47.3441 24.093 45.8448 25.8851 43.7184 26.9763C43.4408 27.1173 43.117 27.228 42.7547 27.307Z" fill="#CDECFA"/>
<path d="M38.8652 13.0073C42.1638 12.2888 45.4021 13.653 47.0289 16.3667C49.125 19.8559 47.8342 24.6384 43.6252 26.8032C43.3551 26.9426 43.0523 27.0408 42.7126 27.1147C39.1951 27.8808 32.5751 25.2561 32.5751 25.2561C32.5751 25.2561 33.049 15.9973 36.0319 14.1558C36.9605 13.5912 37.9141 13.2144 38.8652 13.0073ZM38.7832 12.6306C37.7642 12.8525 36.7761 13.2529 35.8417 13.8268C34.5104 14.6482 33.4924 16.8348 32.8193 20.3151C32.3286 22.8538 32.2011 25.2088 32.2061 25.2318C32.196 25.4031 32.2991 25.5498 32.4475 25.6141C32.7242 25.7229 39.2092 28.2723 42.8022 27.4898C43.1796 27.4076 43.5109 27.2952 43.802 27.1432C45.9778 26.0251 47.5065 24.1864 48.1237 21.9744C48.6755 19.9699 48.407 17.9025 47.3552 16.1588C46.5104 14.7484 45.2554 13.6689 43.7184 13.0374C42.1739 12.4074 40.474 12.2623 38.7832 12.6306Z" fill="white"/>
<path d="M23.4372 31.5138C23.0824 31.5911 22.7419 31.625 22.4308 31.6122C20.0432 31.5041 17.9344 30.4979 16.4918 28.7748C15.1891 27.2225 14.5928 25.2829 14.8132 23.3184C14.9883 21.7262 15.6664 20.2659 16.7747 19.0743C17.883 17.8828 19.3417 17.0658 20.9948 16.7058C21.9911 16.4888 23.0411 16.4453 24.1053 16.5759C27.6475 17.0123 31.836 24.99 32.0128 25.3299C32.0522 25.4019 32.0404 25.493 31.9826 25.554C31.9691 25.5649 30.725 26.8586 29.0639 28.235C26.8182 30.0849 24.9242 31.19 23.4372 31.5138Z" fill="#CDECFA"/>
<path d="M21.0267 16.892C21.9777 16.6849 23.0017 16.631 24.0751 16.7676C27.5536 17.2018 31.8351 25.425 31.8351 25.425C31.8351 25.425 26.9062 30.565 23.3887 31.3311C23.0566 31.4034 22.7312 31.434 22.4293 31.4273C17.7011 31.209 14.5384 27.3964 14.9936 23.3516C15.3504 20.1978 17.728 17.6105 21.0267 16.892ZM20.9446 16.5153L21.0267 16.892L20.9446 16.5153C19.2538 16.8836 17.7607 17.7241 16.6272 18.9453C15.4921 20.1589 14.8014 21.6702 14.6179 23.2965C14.3941 25.3181 15.0022 27.3115 16.3375 28.905C17.8129 30.6693 19.9736 31.6964 22.4174 31.8084C22.7453 31.8255 23.1009 31.7884 23.4707 31.7078C27.0637 30.9253 31.9012 25.9098 32.1076 25.6958C32.2233 25.5739 32.2469 25.3917 32.1681 25.2478C32.1556 25.2263 31.0695 23.1438 29.5657 21.0314C27.5046 18.1385 25.6694 16.5734 24.1189 16.3877C23.0363 16.245 21.9636 16.2934 20.9446 16.5153Z" fill="white"/>
<path d="M40.2499 41.1066C40.347 41.5525 40.071 41.9911 39.6332 42.0865C39.3086 42.1572 38.9858 42.0181 38.803 41.76L38.7435 41.6683L38.6882 41.5595L38.6539 41.5106L38.296 40.9202L38.1468 40.6709L37.6288 39.8174L37.1142 38.9793L36.0976 37.3245L37.9469 36.9217L38.6442 38.1629L39.1512 39.0751L39.5921 39.8649L39.7479 40.145L40.0706 40.7189L40.1083 40.7832L40.11 40.7909C40.146 40.8474 40.1821 40.904 40.2106 40.9622C40.2265 40.999 40.2349 41.0375 40.2508 41.0743C40.2449 41.0836 40.2483 41.099 40.2499 41.1066Z" fill="url(#paint0_linear_1151_13929)"/>
<path d="M39.1491 39.0753C38.5459 39.4643 38.0167 39.6843 37.6174 39.8115L37.1028 38.9734C37.6254 38.7951 38.226 38.4308 38.6328 38.157L39.1491 39.0753Z" fill="#929293"/>
<path d="M40.2459 41.0755C40.2375 41.0371 40.2216 41.0003 40.2056 40.9635C40.1772 40.9053 40.1487 40.8471 40.1051 40.7921L40.1034 40.7844L40.0657 40.7202L39.743 40.1463C39.3463 40.3937 38.7918 40.7158 38.2894 40.9138L38.6473 41.5042L38.7445 41.6602L38.804 41.7519C38.9867 42.0101 39.3095 42.1491 39.6341 42.0784C40.0719 41.9831 40.348 41.5445 40.2509 41.0986C40.2509 41.0986 40.2475 41.0832 40.2459 41.0755Z" fill="#929293"/>
<path d="M43.1266 45.1347C43.2447 45.4955 43.0592 45.9144 42.6826 46.0367C42.4025 46.1299 42.088 46.0293 41.9028 45.7958L41.7796 45.6294L41.3043 45.0082L41.0503 44.677L40.684 44.1931L40.4518 43.8894L40.2087 43.5719L39.855 43.1094L39.5885 42.7568L39.2565 42.3218L39.0444 42.0378L38.834 41.7615L38.8215 41.7401L38.8274 41.7308L40.1083 40.7512L40.3631 41.1225L40.4335 41.228L40.5475 41.3884L40.9473 41.9535L41.1535 42.2468L41.5081 42.7494L41.6783 42.9861L42.0093 43.4535L42.2826 43.8369L42.5592 44.2356L43.0495 44.926C43.0588 44.9321 43.0604 44.9398 43.0638 44.9552C43.0864 45.0227 43.1073 45.0826 43.1266 45.1347Z" fill="url(#paint1_linear_1151_13929)"/>
<path d="M40.3529 41.1411C39.9997 41.516 39.4603 41.8348 39.0401 42.0471L38.8297 41.7708L38.8171 41.7494L38.823 41.7401L40.104 40.7605L40.3529 41.1411Z" fill="#929293"/>
<path d="M41.4952 42.7603C41.2075 43.0001 40.6849 43.3958 40.2001 43.5658L39.8464 43.1033L39.5798 42.7507C39.8884 42.7157 40.4646 42.566 40.9345 41.9644L41.1407 42.2577L41.4952 42.7603Z" fill="#929293"/>
<path d="M42.5495 44.2464C42.2484 44.4972 41.7644 44.8522 41.3064 45.0003L41.0524 44.6691L40.6861 44.1852C40.9797 44.1534 41.5366 44.0241 41.9997 43.4642L42.2729 43.8476L42.5495 44.2464Z" fill="#929293"/>
<path d="M43.1283 45.1345C43.2464 45.4953 43.0609 45.9141 42.6843 46.0364C42.4042 46.1296 42.0897 46.029 41.9045 45.7956L41.7812 45.6292C42.0597 45.6007 42.5956 45.484 43.052 44.9659C43.0881 45.0224 43.109 45.0823 43.1283 45.1345Z" fill="#929293"/>
<path d="M43.2489 45.4055C43.2539 45.4286 43.2589 45.4516 43.2656 45.4824C43.2958 45.6208 43.2924 45.7503 43.2646 45.8772C43.31 50.0063 40.9298 50.4763 40.2623 50.5332C40.1532 50.5408 40.0895 50.5386 40.0895 50.5386L41.5674 45.5624C41.5833 45.4542 41.6085 45.3521 41.658 45.2527C41.7688 45.0353 41.976 44.8614 42.2402 44.8038C42.3233 44.7857 42.4004 44.777 42.4809 44.7836C42.8256 44.8052 43.1291 45.037 43.2438 45.3824L43.2514 45.3808C43.2455 45.3901 43.2472 45.3978 43.2489 45.4055Z" fill="#003140"/>
<path opacity="0.54" d="M42.6831 45.1418C42.2509 46.17 41.5729 49.2649 40.2659 50.5239C40.1568 50.5315 40.0931 50.5293 40.0931 50.5293L41.571 45.5531C41.5869 45.4449 41.6121 45.3428 41.6616 45.2434C41.7724 45.0261 41.9796 44.8521 42.2438 44.7945C42.3269 44.7765 42.404 44.7677 42.4845 44.7743C42.5969 44.8545 42.6765 44.966 42.6831 45.1418Z" fill="#45A4DC"/>
<path d="M33.4478 42.588C33.5449 43.0339 33.2688 43.4725 32.831 43.5679C32.5064 43.6386 32.1836 43.4995 32.0009 43.2414L31.9414 43.1496L31.8785 43.0426L31.8442 42.9937L31.4863 42.4033L31.3371 42.1539L30.8192 41.3004L30.3045 40.4623L29.2879 38.8075L31.1372 38.4047L31.8345 39.6459L32.3415 40.5582L32.7824 41.3479L32.9383 41.628L33.2609 42.202L33.2986 42.2662L33.3003 42.2739C33.3363 42.3305 33.3724 42.387 33.4009 42.4453C33.4168 42.4821 33.4252 42.5205 33.4411 42.5573C33.4428 42.565 33.4461 42.5803 33.4478 42.588Z" fill="url(#paint2_linear_1151_13929)"/>
<path d="M32.3394 40.5584C31.7363 40.9475 31.2071 41.1674 30.8078 41.2946L30.2932 40.4565C30.8157 40.2783 31.4163 39.914 31.8232 39.6401L32.3394 40.5584Z" fill="#929293"/>
<path d="M33.4421 42.5572C33.4337 42.5188 33.4178 42.482 33.4019 42.4452C33.3734 42.387 33.3449 42.3287 33.3013 42.2738L33.2996 42.2661L33.2619 42.2019L32.9392 41.6279C32.5425 41.8754 31.988 42.1975 31.4856 42.3955L31.8435 42.9859L31.9407 43.1419L32.0002 43.2336C32.1829 43.4917 32.5058 43.6308 32.8303 43.5601C33.2681 43.4648 33.5442 43.0262 33.4471 42.5803C33.4471 42.5803 33.4437 42.5649 33.4421 42.5572Z" fill="#929293"/>
<path d="M36.3215 46.6158C36.4397 46.9766 36.2542 47.3955 35.8776 47.5178C35.5974 47.611 35.283 47.5104 35.0977 47.2769L34.9745 47.1105L34.4992 46.4893L34.2453 46.1581L33.879 45.6742L33.6468 45.3705L33.4037 45.053L33.0499 44.5905L32.7834 44.2379L32.4515 43.8029L32.2394 43.5189L32.029 43.2426L32.0164 43.2212L32.0223 43.2119L33.3033 42.2323L33.5581 42.6036L33.6285 42.7091L33.7425 42.8694L34.1423 43.4346L34.3485 43.7279L34.703 44.2305L34.8732 44.4672L35.2043 44.9346L35.4775 45.318L35.7541 45.7167L36.2445 46.4071C36.2537 46.4132 36.2554 46.4209 36.2587 46.4362C36.2738 46.5054 36.3023 46.5636 36.3215 46.6158Z" fill="url(#paint3_linear_1151_13929)"/>
<path d="M33.5487 42.6222C33.1955 42.9971 32.6561 43.3159 32.2359 43.5282L32.0255 43.2519L32.0129 43.2305L32.0188 43.2211L33.2997 42.2416L33.5487 42.6222Z" fill="#929293"/>
<path d="M34.6851 44.2428C34.3973 44.4827 33.8747 44.8783 33.3899 45.0483L33.0362 44.5859L32.7696 44.2332C33.0782 44.1982 33.6544 44.0486 34.1243 43.447L34.3305 43.7403L34.6851 44.2428Z" fill="#929293"/>
<path d="M35.7334 45.7294C35.4322 45.9802 34.9482 46.3352 34.4902 46.4833L34.2363 46.1521L33.87 45.6682C34.1635 45.6365 34.7204 45.5071 35.1835 44.9473L35.4568 45.3306L35.7334 45.7294Z" fill="#929293"/>
<path d="M36.324 46.6155C36.4421 46.9763 36.2566 47.3952 35.88 47.5175C35.5999 47.6107 35.2854 47.5101 35.1002 47.2767L34.977 47.1102C35.2554 47.0818 35.7913 46.9651 36.2478 46.4469C36.2763 46.5051 36.3047 46.5634 36.324 46.6155Z" fill="#929293"/>
<path d="M36.4375 46.8888C36.4425 46.9118 36.4475 46.9349 36.4542 46.9656C36.4844 47.104 36.481 47.2336 36.4532 47.3604C36.4987 51.4895 34.1184 51.9596 33.4509 52.0164C33.3418 52.0241 33.2781 52.0218 33.2781 52.0218L34.756 47.0456C34.7719 46.9375 34.7971 46.8354 34.8467 46.736C34.9574 46.5186 35.1646 46.3446 35.4288 46.2871C35.5119 46.269 35.589 46.2603 35.6695 46.2669C36.0142 46.2884 36.3177 46.5203 36.4325 46.8657L36.44 46.8641C36.4417 46.8717 36.4434 46.8794 36.4375 46.8888Z" fill="#003140"/>
<path opacity="0.54" d="M35.8731 46.625C35.4409 47.6533 34.7629 50.7481 33.4559 52.0072C33.3468 52.0148 33.2831 52.0126 33.2831 52.0126L34.761 47.0364C34.7769 46.9282 34.8021 46.8261 34.8516 46.7267C34.9624 46.5093 35.1696 46.3354 35.4338 46.2778C35.5169 46.2597 35.594 46.251 35.6745 46.2576C35.7944 46.3362 35.8665 46.4493 35.8731 46.625Z" fill="#45A4DC"/>
<path d="M19.2641 28.4201C19.3236 28.5843 19.4158 28.7172 19.5407 28.8189C19.7243 28.9721 19.9625 29.0491 20.2015 29.0212C20.2921 29.0015 20.381 28.9741 20.4699 28.9467C20.485 28.9434 20.5076 28.9384 20.5227 28.9351C20.589 28.9127 20.6477 28.8918 20.7064 28.871C20.75 28.8534 20.7936 28.8359 20.8373 28.8183C20.932 28.7816 21.0193 28.7465 21.1048 28.7037C21.1468 28.6784 21.1904 28.6609 21.2323 28.6356C21.2608 28.6214 21.2894 28.6071 21.3162 28.5852C21.52 28.4683 21.7239 28.3514 21.9201 28.2362C22.1164 28.121 22.2976 28.0091 22.4805 27.9048C22.6692 27.7912 22.8504 27.6793 23.0257 27.5767C23.123 27.5152 23.2145 27.4631 23.3118 27.4017C23.7161 27.1526 24.0751 26.9133 24.3863 26.7086C24.3939 26.707 24.3997 26.6977 24.4073 26.696C24.7109 26.493 24.9727 26.3152 25.1656 26.1846C25.179 26.1736 25.1924 26.1626 25.2075 26.1594C25.2688 26.1138 25.3317 26.076 25.3854 26.0321C25.6874 25.8213 25.9608 25.6249 26.1907 25.446C26.2117 25.4334 26.2309 25.4131 26.2444 25.4021C26.2981 25.3582 26.3517 25.3143 26.4071 25.2781C26.6026 25.1227 26.798 24.9674 26.9415 24.7912C27.0304 24.6914 27.0934 24.581 27.1362 24.4509C27.1765 24.3455 27.1908 24.2296 27.1866 24.1017C27.1642 23.5993 26.7408 23.2164 26.2544 23.2338C26.2393 23.2371 26.215 23.2343 26.1999 23.2376C26.1227 23.2463 26.0473 23.2628 25.9827 23.2929C25.8082 23.3632 25.6606 23.4839 25.559 23.6348C25.507 23.6864 25.4265 23.7523 25.3191 23.8401C25.2923 23.862 25.2713 23.8747 25.2444 23.8966C25.0146 24.0755 24.6874 24.3159 24.2747 24.599C24.2613 24.61 24.2538 24.6116 24.2403 24.6226C24.0281 24.7735 23.7857 24.931 23.5315 25.1072C23.4493 25.1653 23.3654 25.2158 23.2832 25.274C23.0064 25.455 22.7145 25.6394 22.4091 25.8348C22.3538 25.871 22.2984 25.9072 22.243 25.9434C22.0619 26.0553 21.8731 26.1689 21.6861 26.2902C21.4973 26.4038 21.301 26.519 21.1048 26.6342C20.9294 26.7368 20.7466 26.8411 20.5562 26.9469C20.5008 26.9832 20.4362 27.0133 20.3733 27.0512C20.3599 27.0622 20.3372 27.0671 20.3238 27.0781C20.2534 27.1176 20.1737 27.151 20.0772 27.1801C20.0336 27.1976 19.9959 27.2059 19.9523 27.2234C19.9086 27.241 19.8558 27.2525 19.803 27.264C19.4297 27.4016 19.2082 27.7639 19.2206 28.1478C19.2164 28.2373 19.2365 28.3295 19.2641 28.4201Z" fill="url(#paint4_linear_1151_13929)"/>
<path d="M20.9624 27.8572C21.1023 28.3179 20.8665 28.7961 20.4286 28.9639C20.4077 28.9765 20.385 28.9814 20.3624 28.9864C20.2961 29.0089 20.2265 29.016 20.1569 29.0231C19.7585 29.0454 19.3695 28.7839 19.2489 28.3753C19.1057 27.8992 19.3683 27.3991 19.8338 27.2494L19.8414 27.2477C19.8867 27.2379 19.932 27.228 19.9773 27.2182C20.4159 27.1629 20.8368 27.4255 20.9624 27.8572Z" fill="#929293"/>
<path d="M19.215 28.1412L19.5427 28.8107C19.7263 28.964 19.9644 29.0409 20.2034 29.013C20.294 28.9933 20.3829 28.9659 20.4718 28.9385C20.4869 28.9352 20.5096 28.9303 20.5247 28.927C20.5909 28.9045 20.6496 28.8837 20.7083 28.8628C20.8484 28.8162 20.9776 28.7559 21.0992 28.6972L20.3031 27.0748C20.1966 27.1302 20.0716 27.1736 19.9315 27.2202C19.8879 27.2377 19.8351 27.2492 19.7822 27.2607C19.4258 27.4028 19.2026 27.7574 19.215 28.1412Z" fill="#929293"/>
<path d="M20.0709 27.1812L20.846 28.8162C20.9408 28.7794 21.028 28.7443 21.1136 28.7015C21.1555 28.6763 21.1991 28.6587 21.2411 28.6335C21.2696 28.6192 21.2981 28.605 21.325 28.583L20.5482 26.9404C20.4928 26.9766 20.4282 27.0068 20.3653 27.0446C20.3519 27.0556 20.3292 27.0605 20.3158 27.0715C20.2395 27.1204 20.1598 27.1538 20.0709 27.1812Z" fill="#929293"/>
<path d="M21.6712 26.2855C21.9335 26.7277 22.298 27.4938 22.4824 27.9046C22.6711 27.791 22.8523 27.6791 23.0276 27.5765C23.1249 27.515 23.2163 27.4629 23.3136 27.4014C23.1084 26.7858 22.6868 26.1932 22.411 25.8345C22.3557 25.8707 22.3003 25.907 22.2449 25.9432C22.0486 26.0584 21.8599 26.172 21.6712 26.2855Z" fill="#929293"/>
<path d="M23.52 25.1098C23.8032 25.5393 24.1963 26.2911 24.4033 26.697C24.7069 26.4939 24.9687 26.3162 25.1616 26.1856C25.175 26.1746 25.1884 26.1636 25.2035 26.1603C24.9698 25.559 24.5272 24.979 24.2321 24.6406C24.0182 24.7838 23.7758 24.9413 23.52 25.1098Z" fill="#929293"/>
<path d="M25.3083 23.8431C25.6058 24.3017 26.0022 25.069 26.1933 25.438C26.2142 25.4254 26.2335 25.4051 26.247 25.3941C26.3006 25.3502 26.3543 25.3063 26.4097 25.2701C26.6052 25.1148 26.8006 24.9595 26.9441 24.7833C26.7045 24.1913 26.2652 23.6267 25.9794 23.2943C25.8049 23.3645 25.6573 23.4853 25.5557 23.6362C25.4962 23.6895 25.4173 23.763 25.3083 23.8431Z" fill="#929293"/>
<path d="M11.5651 24.6698C11.5777 24.6912 11.5886 24.7049 11.6011 24.7264C11.726 24.9005 11.8845 25.0834 12.0748 25.2674C12.2341 25.4179 12.4177 25.5712 12.6105 25.7305C12.7815 25.8624 12.9618 26.0003 13.1554 26.1272C13.2862 26.2195 13.4321 26.3085 13.5705 26.3991C13.8363 26.5667 14.1188 26.7387 14.398 26.8953C14.5053 26.9525 14.6127 27.0096 14.7141 27.0761C15.0101 27.2371 15.3119 27.3888 15.5953 27.5284C15.701 27.5778 15.7991 27.6289 15.8955 27.6724C15.9475 27.6932 16.0012 27.7218 16.0624 27.7488C16.2477 27.8372 16.4665 27.9345 16.7172 28.0329C16.8824 28.1016 17.0661 28.1824 17.2556 28.2539C17.4895 28.3479 17.7386 28.4386 17.9935 28.5199C18.2576 28.6074 18.5217 28.6948 18.7976 28.7635C18.915 28.7943 19.04 28.8235 19.1574 28.8543C19.3326 28.8966 19.4987 28.9329 19.6706 28.9599C19.7041 28.9687 19.736 28.9698 19.7695 28.9786C19.8928 29.0001 20.0068 29.0155 20.1209 29.0309L20.3237 27.2394C20.3161 27.241 20.2994 27.2366 20.2918 27.2383C20.1945 27.2273 20.0956 27.2085 19.9891 27.1915C19.9237 27.1816 19.849 27.1656 19.7819 27.148C19.517 27.093 19.2243 27.0198 18.9174 26.9176L18.9099 26.9192C18.8243 26.8895 18.7312 26.8615 18.6457 26.8318C18.3388 26.7295 18.021 26.6135 17.6923 26.4838L17.6831 26.4778C17.3452 26.342 16.9964 26.1925 16.6425 26.02C16.5721 25.987 16.5092 25.9524 16.4405 25.9271L16.3164 25.8655C15.9902 25.7111 15.685 25.544 15.3982 25.3891C15.3169 25.3424 15.2448 25.3017 15.1651 25.2627C14.74 25.0171 14.356 24.7786 14.0391 24.5577C14.0114 24.5396 13.9838 24.5215 13.9544 24.4957C13.6174 24.255 13.3659 24.0441 13.194 23.8721C13.1555 23.8403 13.1228 23.7991 13.101 23.7716C13.0792 23.7441 13.0574 23.7167 13.0448 23.6953C12.7682 23.2965 12.2307 23.1881 11.8297 23.4526C11.8222 23.4542 11.8163 23.4636 11.8088 23.4652C11.4246 23.7341 11.3262 24.2628 11.5651 24.6698Z" fill="url(#paint5_linear_1151_13929)"/>
<path d="M19.68 28.5636L19.679 28.9584C19.7126 28.9672 19.7444 28.9683 19.778 28.9771C19.9013 28.9986 20.0153 29.014 20.1293 29.0295L20.3321 27.2379C20.3246 27.2395 20.3078 27.2351 20.3003 27.2368C20.203 27.2257 20.104 27.207 19.9975 27.19C19.9321 27.18 19.8575 27.1641 19.7904 27.1465L19.68 28.5636Z" fill="#929293"/>
<path d="M16.7225 28.0237C16.8877 28.0924 17.0713 28.1732 17.2608 28.2447C17.4948 28.3387 17.7438 28.4294 17.9987 28.5107C18.2883 27.9162 18.5041 27.2733 18.6451 26.832C18.3382 26.7297 18.0204 26.6137 17.6917 26.484L17.6825 26.4779C17.4173 27.0027 17.0187 27.6049 16.7225 28.0237Z" fill="#929293"/>
<path d="M14.4045 26.8862C14.5119 26.9433 14.6192 27.0005 14.7206 27.067C15.0166 27.228 15.3185 27.3796 15.6019 27.5192C15.9132 26.9522 16.1625 26.3181 16.317 25.8657C15.9908 25.7113 15.6856 25.5442 15.3989 25.3893C15.1303 25.8987 14.7175 26.4718 14.4045 26.8862Z" fill="#929293"/>
<path d="M12.0721 25.26C12.2314 25.4105 12.415 25.5638 12.6078 25.7231C12.7789 25.855 12.9591 25.9929 13.1528 26.1198C13.5186 25.6214 13.8249 25.0312 14.0457 24.5564C14.018 24.5383 13.9903 24.5201 13.961 24.4943C13.624 24.2537 13.3725 24.0427 13.2006 23.8708C12.8666 24.3703 12.3985 24.9071 12.0721 25.26Z" fill="#929293"/>
<path d="M11.9893 24.7959C10.9167 24.9168 9.56581 24.4863 8.96381 24.1182C8.06669 23.5566 7.43397 22.3577 7.38398 21.4748C7.37067 21.1958 7.41102 20.9455 7.51927 20.7528C7.95312 20.0221 9.90613 20.4584 11.2709 21.9327C11.3079 21.5945 11.2763 21.0136 11.4458 20.7028C11.4852 20.6298 11.5356 20.5706 11.6001 20.5404C12.2284 20.1942 12.4984 20.1998 12.9099 20.9637C13.0817 21.2806 13.1479 21.6205 13.1285 21.9308C13.2368 23.8076 12.7182 24.6211 11.9893 24.7959Z" fill="#003140"/>
<path opacity="0.54" d="M10.7657 22.485C9.75646 21.2634 8.21251 21.3259 7.37549 21.476C7.36218 21.197 7.40253 20.9467 7.51079 20.754C7.94463 20.0233 9.89765 20.4596 11.2624 21.9339C11.2994 21.5957 11.2678 21.0148 11.4373 20.7041C11.3398 21.1279 11.2675 21.6671 11.2564 22.3056C11.2663 22.5692 10.9367 22.6893 10.7657 22.485Z" fill="#45A4DC"/>
<path d="M43.5172 25.5941C43.6128 25.4525 43.6657 25.2961 43.6775 25.1324C43.6969 24.8947 43.6131 24.6553 43.453 24.4647C43.3834 24.3993 43.308 24.3432 43.2325 24.2872C43.2216 24.2735 43.2032 24.2614 43.1939 24.2553C43.1369 24.2114 43.0891 24.1735 43.0338 24.1372C42.9969 24.113 42.9584 24.0812 42.9215 24.057C42.8385 24.0026 42.7555 23.9482 42.6741 23.9015C42.6297 23.879 42.5852 23.8564 42.5484 23.8323C42.5224 23.8218 42.4947 23.8037 42.4612 23.7949C42.2482 23.6883 42.0369 23.5894 41.8348 23.4965C41.6327 23.4036 41.4307 23.3107 41.2378 23.2239C41.0357 23.131 40.8429 23.0442 40.6592 22.9634C40.5553 22.9216 40.4496 22.8721 40.3532 22.8287C39.9172 22.6418 39.5164 22.4715 39.1709 22.3373C39.1617 22.3313 39.1541 22.3329 39.1449 22.3269C38.7994 22.1928 38.5135 22.0779 38.2888 21.9899C38.272 21.9855 38.2552 21.9811 38.246 21.9751C38.1773 21.9498 38.1085 21.9245 38.0398 21.8992C37.696 21.7728 37.3782 21.6568 37.0989 21.5727C37.0729 21.5622 37.0562 21.5578 37.0302 21.5474C36.9614 21.5221 36.8943 21.5045 36.8348 21.4853C36.5966 21.4083 36.3602 21.339 36.1354 21.3235C36.0063 21.3114 35.8729 21.3163 35.748 21.3596C35.644 21.3903 35.5358 21.438 35.4435 21.5225C35.0601 21.8315 34.9928 22.3937 35.3013 22.7936C35.3122 22.8073 35.3231 22.8211 35.3356 22.8425C35.3885 22.9035 35.4471 22.9551 35.5117 22.9974C35.6685 23.1001 35.8546 23.1562 36.0349 23.1492C36.102 23.1668 36.2027 23.1932 36.3385 23.2361C36.3645 23.2465 36.398 23.2553 36.4316 23.2641C36.7125 23.3559 37.0974 23.4895 37.5619 23.6621C37.5711 23.6682 37.5879 23.6726 37.5971 23.6786C37.8462 23.7693 38.1136 23.8721 38.3996 23.987C38.4868 24.0244 38.5815 24.0601 38.6763 24.0958C38.9807 24.2228 39.3018 24.3542 39.6414 24.4976C39.7026 24.5245 39.7638 24.5515 39.825 24.5784C40.0254 24.6636 40.2258 24.7488 40.4279 24.8417C40.63 24.9346 40.8396 25.0258 41.0509 25.1247C41.2362 25.2132 41.4291 25.3 41.6236 25.3946C41.6848 25.4215 41.7477 25.4561 41.8089 25.483C41.8257 25.4874 41.8441 25.4995 41.8626 25.5116C41.9347 25.5523 42.0085 25.6006 42.0915 25.655C42.1283 25.6792 42.1577 25.705 42.1963 25.7369C42.2348 25.7687 42.2734 25.8006 42.312 25.8325C42.6381 26.0594 43.0608 26.0398 43.3577 25.806C43.3989 25.7407 43.4626 25.6704 43.5172 25.5941Z" fill="url(#paint6_linear_1151_13929)"/>
<path d="M42.0713 24.5078C42.3608 24.1307 42.8807 24.0496 43.2698 24.3112C43.2882 24.3233 43.3067 24.3353 43.3268 24.3551C43.3838 24.3991 43.4349 24.4524 43.4785 24.5073C43.7308 24.8308 43.7449 25.2948 43.4865 25.6329C43.1853 26.0287 42.6301 26.0932 42.2402 25.7916L42.231 25.7856C42.1924 25.7537 42.1539 25.7218 42.1228 25.6883C41.8311 25.3653 41.8011 24.8646 42.0713 24.5078Z" fill="#929293"/>
<path d="M43.3266 25.7971L43.6741 25.1416C43.6935 24.9039 43.6097 24.6645 43.4496 24.4739C43.38 24.4085 43.3045 24.3525 43.2291 24.2964C43.2182 24.2827 43.1997 24.2706 43.1905 24.2646C43.1335 24.2206 43.0857 24.1827 43.0304 24.1465C42.9088 24.0602 42.7889 23.9816 42.6632 23.9124L41.8298 25.495C41.9371 25.5522 42.0478 25.6247 42.1635 25.7203C42.202 25.7521 42.2406 25.784 42.2792 25.8159C42.607 26.0505 43.0297 26.0309 43.3266 25.7971Z" fill="#929293"/>
<path d="M42.0571 25.6386L42.9148 24.0587C42.8318 24.0043 42.7488 23.9499 42.6674 23.9032C42.623 23.8807 42.5786 23.8582 42.5417 23.834C42.5157 23.8235 42.488 23.8054 42.4545 23.7966L41.5968 25.3765C41.658 25.4034 41.7209 25.438 41.7821 25.465C41.7989 25.4694 41.8173 25.4814 41.8358 25.4935C41.9003 25.5358 41.9741 25.5842 42.0571 25.6386Z" fill="#929293"/>
<path d="M40.4003 24.8235C40.5984 24.3536 41.0063 23.6125 41.2228 23.2272C41.0207 23.1343 40.8279 23.0475 40.6442 22.9667C40.5403 22.9249 40.4346 22.8754 40.3382 22.832C39.9698 23.3551 39.7322 24.043 39.6138 24.4795C39.675 24.5064 39.7363 24.5333 39.7975 24.5603C39.9903 24.6471 40.1983 24.7306 40.4003 24.8235Z" fill="#929293"/>
<path d="M38.3715 23.9689C38.5512 23.4869 38.9238 22.7293 39.1219 22.3319C38.7764 22.1977 38.4905 22.0829 38.2658 21.9949C38.249 21.9905 38.2322 21.9861 38.223 21.9801C37.8748 22.523 37.6707 23.2196 37.5691 23.6605C37.8181 23.7512 38.0856 23.854 38.3715 23.9689Z" fill="#929293"/>
<path d="M36.3204 23.2163C36.5177 22.7063 36.8962 21.9394 37.0842 21.5683C37.0582 21.5579 37.0415 21.5535 37.0155 21.543C36.9467 21.5177 36.8796 21.5001 36.8201 21.4809C36.5819 21.4039 36.3455 21.3346 36.1207 21.3192C35.7876 21.8588 35.5894 22.5461 35.4936 22.9777C35.6504 23.0804 35.8366 23.1365 36.0169 23.1294C36.084 23.147 36.1846 23.1734 36.3204 23.2163Z" fill="#929293"/>
<path d="M49.1923 31.7431C49.1872 31.72 49.1822 31.697 49.1864 31.68C49.1488 31.4707 49.0742 31.2373 48.9737 30.9935C48.889 30.7865 48.7876 30.575 48.6678 30.3515C48.5622 30.1571 48.4491 29.9643 48.3267 29.7655C48.2404 29.6232 48.1465 29.4826 48.0602 29.3404C47.8833 29.0729 47.6989 28.8071 47.4994 28.5445C47.4307 28.4468 47.3544 28.3506 47.2781 28.2545C47.0694 27.9859 46.8624 27.725 46.6494 27.4735C46.5748 27.385 46.5019 27.3043 46.4349 27.2142C46.4022 27.173 46.3602 27.1258 46.3183 27.0785C46.1817 26.9231 46.0233 26.7402 45.8388 26.5468C45.7148 26.4128 45.5798 26.265 45.4297 26.1205C45.2487 25.9426 45.0567 25.7509 44.8588 25.5685C44.6518 25.3801 44.4447 25.1916 44.2225 25.0065C44.1253 24.923 44.0297 24.8472 43.9266 24.773C43.7849 24.667 43.6432 24.5609 43.5032 24.4626C43.4755 24.4445 43.4478 24.4263 43.4202 24.4082C43.3187 24.3417 43.2173 24.2752 43.1175 24.2164L42.1995 25.737C42.2087 25.743 42.2179 25.7491 42.2271 25.7551C42.3085 25.8018 42.4007 25.8623 42.4854 25.9244C42.5407 25.9606 42.6053 26.0029 42.6623 26.0469C42.8794 26.209 43.1184 26.3985 43.3623 26.6111C43.3623 26.6111 43.364 26.6188 43.3715 26.6171C43.4395 26.6748 43.509 26.7402 43.5786 26.8056C43.8167 27.0275 44.0581 27.2648 44.3122 27.5235L44.3214 27.5296C44.5771 27.796 44.8361 28.0778 45.0909 28.3766C45.1421 28.4299 45.1873 28.4925 45.2385 28.5458L45.3256 28.6556C45.5604 28.9346 45.7707 29.2109 45.9702 29.4735C46.0247 29.5421 46.0809 29.6185 46.1278 29.6888C46.4212 30.0919 46.6685 30.4649 46.8679 30.7999C46.8822 30.829 46.904 30.8565 46.9182 30.8856C47.1302 31.242 47.2744 31.5408 47.364 31.7709C47.3816 31.8153 47.3992 31.8598 47.4093 31.906C47.4176 31.9444 47.4243 31.9751 47.4294 31.9982C47.5181 32.4781 47.975 32.7974 48.4422 32.7278C48.4497 32.7262 48.4573 32.7245 48.4723 32.7213C48.9378 32.644 49.2458 32.2065 49.1923 31.7431Z" fill="url(#paint7_linear_1151_13929)"/>
<path d="M43.3321 24.8054L43.4916 24.4486C43.4639 24.4305 43.4363 24.4124 43.4086 24.3942C43.3071 24.3277 43.2057 24.2613 43.1059 24.2025L42.1988 25.7367C42.208 25.7428 42.2172 25.7488 42.2264 25.7549C42.3078 25.8016 42.4 25.862 42.4847 25.9241C42.54 25.9603 42.6046 26.0027 42.6616 26.0466L43.3321 24.8054Z" fill="#929293"/>
<path d="M45.8272 26.5329C45.7032 26.3988 45.5682 26.2511 45.4181 26.1066C45.2371 25.9286 45.0451 25.7369 44.8472 25.5545C44.3447 25.97 43.8833 26.465 43.5796 26.813C43.8177 27.035 44.0591 27.2723 44.3131 27.531L44.3223 27.537C44.7728 27.1732 45.3852 26.7902 45.8272 26.5329Z" fill="#929293"/>
<path d="M47.4905 28.5383C47.4217 28.4405 47.3455 28.3444 47.2692 28.2483C47.0605 27.9797 46.8534 27.7188 46.6405 27.4672C46.1238 27.8536 45.6422 28.3288 45.3217 28.6724C45.5564 28.9515 45.7668 29.2277 45.9663 29.4903C46.426 29.1325 47.0375 28.7819 47.4905 28.5383Z" fill="#929293"/>
<path d="M48.9638 30.9874C48.8792 30.7804 48.7778 30.5689 48.658 30.3454C48.5524 30.151 48.4392 29.9582 48.3169 29.7594C47.7817 30.0611 47.2624 30.4722 46.869 30.8075C46.8832 30.8366 46.905 30.8641 46.9193 30.8932C47.1313 31.2496 47.2754 31.5484 47.3651 31.7785C47.8759 31.474 48.5218 31.1723 48.9638 30.9874Z" fill="#929293"/>
<path d="M48.8076 30.2319C49.7585 30.7495 50.6461 31.8848 50.9369 32.5301C51.371 33.5066 51.2287 34.8501 50.7773 35.6087C50.6321 35.8497 50.4584 36.0325 50.263 36.1153C49.4938 36.4681 48.1199 34.9877 47.8028 32.9873C47.5821 33.2447 47.2876 33.7437 46.9722 33.8929C46.9 33.9247 46.8262 33.9488 46.7533 33.9406C46.0405 33.8623 45.8158 33.7019 45.9042 32.8371C45.9378 32.4835 46.0663 32.1657 46.2567 31.9148C47.231 30.3256 48.1075 29.9576 48.8076 30.2319Z" fill="#003140"/>
<path opacity="0.54" d="M48.5343 32.828C48.6973 34.411 50.0094 35.2445 50.7766 35.6089C50.6315 35.8499 50.4578 36.0327 50.2624 36.1155C49.4932 36.4682 48.1192 34.9879 47.8022 32.9874C47.5815 33.2448 47.2869 33.7438 46.9716 33.893C47.2945 33.5972 47.652 33.2053 48.0128 32.6839C48.1739 32.4797 48.5093 32.5677 48.5343 32.828Z" fill="#45A4DC"/>
<path d="M40.7439 29.9106C41.0135 31.1484 41.065 32.2564 40.9322 33.2436C40.4646 36.6872 37.7509 38.6392 34.2409 39.4036C30.7309 40.1681 27.4496 39.5138 25.594 36.5842C25.0626 35.7417 24.6487 34.7126 24.3791 33.4748C24.3021 33.1212 24.2368 32.7489 24.1883 32.381C23.9207 30.4261 24.0364 28.3073 24.4933 26.3396C25.2922 22.856 27.1584 19.8808 29.8683 19.2906C32.5781 18.7004 35.5051 20.6317 37.6878 23.4659C38.9141 25.067 39.9005 26.9458 40.4776 28.8332C40.5714 29.1913 40.6652 29.5493 40.7439 29.9106Z" fill="#FCC70D"/>
<path d="M37.6796 23.4676C36.1042 24.8012 33.9258 25.8716 31.4123 26.419C28.8987 26.9665 26.4725 26.899 24.4852 26.3414C25.284 22.8578 27.1503 19.8826 29.8601 19.2924C32.5699 18.7022 35.4969 20.6335 37.6796 23.4676Z" fill="#6D3834"/>
<path d="M40.7426 29.9107C41.0122 31.1484 41.0638 32.2565 40.9309 33.2437C39.3561 34.9797 36.7911 36.4161 33.734 37.0819C30.6769 37.7477 27.7468 37.5082 25.5927 36.5843C25.0613 35.7417 24.6474 34.7126 24.3779 33.4749C24.3009 33.1212 24.2356 32.7489 24.1871 32.381C26.3788 33.5141 29.5538 33.8614 32.875 33.1381C36.2038 32.4131 38.9392 30.7785 40.4688 28.8349C40.5701 29.1913 40.6639 29.5493 40.7426 29.9107Z" fill="#6D3834"/>
<path d="M25.7545 26.6205C25.7545 26.6205 25.1453 32.1725 25.7035 32.9931C26.6334 33.2334 27.2179 33.3396 27.2179 33.3396L27.4896 26.7821L25.7545 26.6205Z" fill="white"/>
<path d="M35.4991 24.9007C35.4991 24.9007 38.3971 30.2203 38.6083 30.6816C39.2853 30.196 39.2853 30.196 39.2853 30.196C39.2853 30.196 36.5013 24.8193 36.1459 24.5666C35.7568 24.5225 35.4991 24.9007 35.4991 24.9007Z" fill="white"/>
<path d="M39.8256 9.89886C41.0194 15.3803 36.1783 19.1081 29.8452 20.4874C23.5122 21.8667 18.0876 20.3747 16.8938 14.8933C15.6999 9.41191 19.1889 2.01677 25.522 0.637453C31.855 -0.741862 38.6317 4.41744 39.8256 9.89886Z" fill="#FCC70D"/>
<path d="M37.5881 13.4622L30.1144 19.4785L20.709 17.6054L18.7772 9.71599L26.2509 3.69964L35.6563 5.57274L37.5881 13.4622Z" fill="#FAA21F"/>
<path d="M36.741 13.1559L29.8798 18.4993L21.3255 16.9401L19.6307 10.0298L26.4978 4.67699L35.0445 6.23784L36.741 13.1559Z" fill="url(#paint8_radial_1151_13929)"/>
<path d="M20.7218 6.38609C21.3509 5.64684 21.6246 4.83924 21.3331 4.58227C21.0417 4.3253 20.2955 4.71627 19.6664 5.45553C19.0374 6.19478 18.7637 7.00238 19.0551 7.25935C19.3466 7.51632 20.0928 7.12535 20.7218 6.38609Z" fill="white"/>
<path d="M23.3907 3.85554C23.0627 4.05581 22.63 3.95679 22.4289 3.61408L19.5986 -1.06803L20.7889 -1.81042L23.6209 2.87937C23.8279 3.21275 23.7246 3.64593 23.3907 3.85554Z" fill="#003140"/>
<path d="M20.7231 0.46683C21.6194 0.27162 22.1848 -0.62665 21.986 -1.53951C21.7871 -2.45237 20.8994 -3.03414 20.0031 -2.83893C19.1068 -2.64372 18.5414 -1.74545 18.7402 -0.832592C18.939 0.0802695 19.8268 0.662041 20.7231 0.46683Z" fill="#45A4DC"/>
<path d="M30.2211 2.36773C30.6027 2.41347 30.955 2.14347 30.9954 1.74815L31.6222 -3.6869L30.231 -3.86705L29.6042 1.56801C29.5562 1.96497 29.8303 2.31595 30.2211 2.36773Z" fill="#003140"/>
<path d="M32.1569 12.591C33.295 12.3432 33.9965 11.1268 33.7237 9.87431C33.4509 8.62178 32.3071 7.80734 31.169 8.05522C30.0309 8.30309 29.3295 9.5194 29.6023 10.7719C29.8751 12.0245 31.0188 12.8389 32.1569 12.591Z" fill="#003140"/>
<path d="M33.5207 9.91835C33.7668 11.0485 33.1358 12.1441 32.1092 12.3677C31.8299 12.4286 31.5506 12.4169 31.2823 12.3465C30.5779 12.1617 29.9861 11.5498 29.8069 10.7272C29.5608 9.5971 30.1918 8.50141 31.2184 8.27782C32.1167 8.08219 33.0239 8.61738 33.3942 9.51912C33.4529 9.64324 33.4889 9.77229 33.5207 9.91835Z" fill="#CDECFA"/>
<path d="M33.1222 10.0131C33.3147 10.8972 32.8154 11.7629 32.0153 11.9372C31.2906 12.095 30.5687 11.6483 30.2822 10.9135C30.2487 10.8322 30.2211 10.7416 30.201 10.6494C30.0084 9.76526 30.5077 8.89957 31.3078 8.72531C31.9645 8.58228 32.6269 8.93727 32.9521 9.55897C33.0309 9.70287 33.087 9.85169 33.1222 10.0131Z" fill="#01738E"/>
<path d="M33.121 10.0134C33.3135 10.8975 32.8142 11.7632 32.0141 11.9375C31.2895 12.0953 30.5676 11.6486 30.281 10.9138C31.1513 11.5698 32.311 11.8487 32.9585 9.55764C33.0297 9.70317 33.0858 9.852 33.121 10.0134Z" fill="url(#paint9_linear_1151_13929)"/>
<path d="M31.8132 11.4418C32.3218 11.3311 32.6359 10.7904 32.5147 10.2341C32.3936 9.67794 31.8831 9.31684 31.3745 9.42761C30.8659 9.53838 30.5518 10.0791 30.673 10.6353C30.7941 11.1915 31.3046 11.5526 31.8132 11.4418Z" fill="#091437"/>
<path d="M31.1322 10.3823C31.3699 10.3305 31.5145 10.0683 31.4553 9.79655C31.3962 9.52481 31.1555 9.34648 30.9179 9.39824C30.6803 9.44999 30.5356 9.71223 30.5948 9.98397C30.654 10.2557 30.8946 10.434 31.1322 10.3823Z" fill="white"/>
<path d="M24.9045 14.0892C26.0426 13.8413 26.7441 12.625 26.4713 11.3725C26.1985 10.1199 25.0547 9.30551 23.9166 9.55339C22.7786 9.80126 22.0771 11.0176 22.3499 12.2701C22.6227 13.5226 23.7664 14.3371 24.9045 14.0892Z" fill="#003140"/>
<path d="M26.2684 11.4167C26.5145 12.5468 25.8835 13.6425 24.8569 13.8661C24.5776 13.9269 24.2984 13.9152 24.03 13.8448C23.3256 13.66 22.7338 13.0481 22.5546 12.2255C22.3085 11.0954 22.9396 9.9997 23.9661 9.77612C24.8644 9.58048 25.7716 10.1157 26.1419 11.0174C26.2006 11.1415 26.2366 11.2706 26.2684 11.4167Z" fill="#CDECFA"/>
<path d="M25.8677 11.5043C26.0603 12.3884 25.561 13.2541 24.7608 13.4284C24.0362 13.5862 23.3143 13.1395 23.0278 12.4047C22.9942 12.3234 22.9666 12.2328 22.9465 12.1406C22.7539 11.2565 23.2533 10.3908 24.0534 10.2165C24.7101 10.0735 25.3725 10.4285 25.6976 11.0502C25.7823 11.1847 25.8326 11.3429 25.8677 11.5043Z" fill="#01738E"/>
<path d="M25.8644 11.5047C26.0569 12.3888 25.5576 13.2545 24.7575 13.4287C24.0329 13.5865 23.311 13.1398 23.0245 12.405C23.8947 13.061 25.0544 13.3399 25.7019 11.0489C25.779 11.1851 25.8292 11.3432 25.8644 11.5047Z" fill="url(#paint10_linear_1151_13929)"/>
<path d="M24.5587 12.9249C25.0673 12.8141 25.3814 12.2734 25.2603 11.7172C25.1392 11.161 24.6286 10.7999 24.1201 10.9106C23.6115 11.0214 23.2974 11.5621 23.4185 12.1183C23.5396 12.6745 24.0501 13.0356 24.5587 12.9249Z" fill="#091437"/>
<path d="M23.8898 11.9344C24.1274 11.8826 24.2721 11.6204 24.2129 11.3487C24.1537 11.0769 23.9131 10.8986 23.6755 10.9504C23.4379 11.0021 23.2932 11.2644 23.3524 11.5361C23.4116 11.8078 23.6522 11.9862 23.8898 11.9344Z" fill="white"/>
<path d="M30.88 14.9392C30.8707 15.2956 30.7884 15.6436 30.613 15.8912C30.1272 16.601 28.9621 17.0238 28.0791 16.7813C28.5383 15.6586 30.0398 14.784 30.88 14.9392Z" fill="#F3746A"/>
<path d="M30.8811 14.9392C30.0391 14.7764 28.5393 15.6586 28.0802 16.7813C27.9049 16.7389 27.7381 16.6626 27.5872 16.5505C27.0145 16.1357 26.541 15.3047 26.8859 14.7465C27.24 14.1942 27.9066 14.4597 28.5114 14.1509C29.2453 13.7816 29.3245 12.9108 30.0297 13.0632C30.5278 13.1722 30.9049 14.1047 30.8811 14.9392Z" fill="#333232"/>
<path d="M29.9497 7.3882C29.9959 7.20099 30.0655 7.04892 30.152 6.90126C30.2384 6.75359 30.3357 6.61966 30.444 6.49946C30.5019 6.43853 30.5597 6.37761 30.6269 6.32273C30.694 6.26785 30.7611 6.21297 30.8601 6.15921C30.881 6.14659 30.9096 6.13232 30.9456 6.11641C30.9741 6.10215 31.0102 6.08624 31.0706 6.07309C31.1008 6.06651 31.131 6.05994 31.1779 6.05776C31.193 6.05448 31.2098 6.05887 31.2174 6.05723L31.2417 6.05999L31.2584 6.06439L31.3222 6.06661C31.4195 6.07763 31.526 6.0947 31.619 6.12274C32.0022 6.24865 32.2798 6.47004 32.5212 6.70735C32.6344 6.82765 32.7417 6.95728 32.8355 7.09788C32.9294 7.23848 33.0082 7.38238 33.0752 7.54493C33.0786 7.56031 33.0744 7.57733 33.0593 7.58062C33.0517 7.58226 33.0517 7.58226 33.0442 7.5839C32.8765 7.53991 32.7222 7.48493 32.5754 7.42831C32.4287 7.3717 32.2895 7.31343 32.1503 7.25517C31.8811 7.14469 31.612 7.03421 31.4049 6.99074C31.3545 6.97755 31.3059 6.97203 31.2497 6.96817L31.2011 6.96265L31.1843 6.95825C31.1843 6.95825 31.1768 6.9599 31.1843 6.95825L31.1994 6.95497C31.207 6.95332 31.2162 6.95937 31.2237 6.95772C31.248 6.96048 31.2707 6.95555 31.2782 6.9539C31.2933 6.95061 31.2933 6.95061 31.2933 6.95061C31.2933 6.95061 31.2782 6.9539 31.2707 6.95555C31.2271 6.9731 31.17 7.00163 31.113 7.03015C31.0484 7.06033 30.9838 7.0905 30.9209 7.12836C30.7842 7.19034 30.6475 7.25233 30.4923 7.30223C30.3371 7.35213 30.182 7.40203 29.9882 7.42007C29.9732 7.42335 29.9547 7.41127 29.9589 7.39425C29.9497 7.3882 29.9497 7.3882 29.9497 7.3882Z" fill="#003140"/>
<path d="M25.3098 8.52726C25.1253 8.55134 24.9567 8.53974 24.7957 8.52649C24.6347 8.51324 24.4779 8.48298 24.3361 8.44942C24.2615 8.43347 24.1944 8.41587 24.1273 8.39827C24.0603 8.38067 23.9932 8.36307 23.9521 8.35591C23.9429 8.34987 23.9353 8.35151 23.9278 8.35316C23.9278 8.35316 23.9278 8.35316 23.9445 8.35756C23.9521 8.35591 23.9689 8.36031 23.9991 8.35374C24.0066 8.35209 24.0141 8.35045 24.0217 8.3488L24.0368 8.34552C24.0443 8.34387 24.0368 8.34552 24.0368 8.34552L24.0217 8.3488L23.9705 8.368C23.9118 8.38884 23.8758 8.40475 23.8246 8.42394C23.6308 8.51446 23.3976 8.67799 23.1586 8.85084C23.0361 8.94194 22.9119 9.02534 22.7819 9.11808C22.6502 9.20313 22.5202 9.29587 22.3642 9.37817C22.3491 9.38145 22.3323 9.37705 22.3306 9.36937C22.329 9.36168 22.329 9.36168 22.3273 9.35399C22.3525 9.1794 22.3962 9.01689 22.4566 8.85878C22.5171 8.70067 22.5867 8.5486 22.6748 8.40863C22.8494 8.12098 23.0667 7.84818 23.4173 7.64298C23.5012 7.5925 23.6018 7.54642 23.6907 7.519L23.7495 7.49817L23.7646 7.49488L23.7947 7.4883C23.8098 7.48501 23.8249 7.48173 23.8325 7.48008C23.8778 7.47022 23.9172 7.46969 23.9415 7.47244C23.9977 7.47631 24.0371 7.47578 24.0707 7.48458C24.1042 7.49338 24.1361 7.49449 24.1621 7.50493C24.2719 7.53737 24.3499 7.5687 24.4312 7.61541C24.5109 7.65443 24.583 7.69509 24.6492 7.74509C24.7876 7.83575 24.9142 7.94507 25.029 8.07305C25.1438 8.20104 25.2511 8.33066 25.3366 8.50531C25.3475 8.51904 25.3358 8.5377 25.3223 8.54868C25.3173 8.52561 25.3173 8.52562 25.3098 8.52726Z" fill="#003140"/>
</g>
<defs>
<linearGradient id="paint0_linear_1151_13929" x1="39.2197" y1="38.9141" x2="37.6015" y2="39.8639" gradientUnits="userSpaceOnUse">
<stop stop-color="#929293"/>
<stop offset="0.3547" stop-color="#E6E7E8"/>
<stop offset="1" stop-color="#BFBADA"/>
</linearGradient>
<linearGradient id="paint1_linear_1151_13929" x1="41.6474" y1="43.2415" x2="40.6379" y2="43.8939" gradientUnits="userSpaceOnUse">
<stop stop-color="#929293"/>
<stop offset="0.3547" stop-color="#E6E7E8"/>
<stop offset="1" stop-color="#BFBADA"/>
</linearGradient>
<linearGradient id="paint2_linear_1151_13929" x1="32.4125" y1="40.3966" x2="30.7943" y2="41.3464" gradientUnits="userSpaceOnUse">
<stop stop-color="#929293"/>
<stop offset="0.3547" stop-color="#E6E7E8"/>
<stop offset="1" stop-color="#BFBADA"/>
</linearGradient>
<linearGradient id="paint3_linear_1151_13929" x1="34.8375" y1="44.7235" x2="33.8279" y2="45.3758" gradientUnits="userSpaceOnUse">
<stop stop-color="#929293"/>
<stop offset="0.3547" stop-color="#E6E7E8"/>
<stop offset="1" stop-color="#BFBADA"/>
</linearGradient>
<linearGradient id="paint4_linear_1151_13929" x1="22.6405" y1="25.2282" x2="23.9115" y2="27.2308" gradientUnits="userSpaceOnUse">
<stop stop-color="#929293"/>
<stop offset="0.3547" stop-color="#E6E7E8"/>
<stop offset="1" stop-color="#BFBADA"/>
</linearGradient>
<linearGradient id="paint5_linear_1151_13929" x1="16.3856" y1="25.2518" x2="15.2399" y2="27.5511" gradientUnits="userSpaceOnUse">
<stop stop-color="#929293"/>
<stop offset="0.3547" stop-color="#E6E7E8"/>
<stop offset="1" stop-color="#BFBADA"/>
</linearGradient>
<linearGradient id="paint6_linear_1151_13929" x1="39.8539" y1="22.496" x2="39.1544" y2="24.1199" gradientUnits="userSpaceOnUse">
<stop stop-color="#929293"/>
<stop offset="0.3547" stop-color="#E6E7E8"/>
<stop offset="1" stop-color="#BFBADA"/>
</linearGradient>
<linearGradient id="paint7_linear_1151_13929" x1="45.0162" y1="29.2029" x2="46.9883" y2="27.5863" gradientUnits="userSpaceOnUse">
<stop stop-color="#929293"/>
<stop offset="0.3547" stop-color="#E6E7E8"/>
<stop offset="1" stop-color="#BFBADA"/>
</linearGradient>
<radialGradient id="paint8_radial_1151_13929" cx="0" cy="0" r="1" gradientUnits="userSpaceOnUse" gradientTransform="translate(28.1855 11.5892) rotate(-12.1435) scale(7.24596 8.07689)">
<stop stop-color="#96D8E4"/>
<stop offset="1" stop-color="#45A4DC"/>
</radialGradient>
<linearGradient id="paint9_linear_1151_13929" x1="31.6385" y1="10.3408" x2="33.5336" y2="12.4457" gradientUnits="userSpaceOnUse">
<stop stop-color="white" stop-opacity="0"/>
<stop offset="0.0693713" stop-color="#D7EEF9" stop-opacity="0.0346857"/>
<stop offset="0.1545" stop-color="#B0DFF3" stop-opacity="0.0772683"/>
<stop offset="0.247" stop-color="#8DD3EF" stop-opacity="0.1235"/>
<stop offset="0.3467" stop-color="#6DCAEC" stop-opacity="0.1734"/>
<stop offset="0.4565" stop-color="#51C4EA" stop-opacity="0.2282"/>
<stop offset="0.5815" stop-color="#34BFE8" stop-opacity="0.2907"/>
<stop offset="0.735" stop-color="#18BDE8" stop-opacity="0.3675"/>
<stop offset="1" stop-color="#06BCE7" stop-opacity="0.5"/>
</linearGradient>
<linearGradient id="paint10_linear_1151_13929" x1="24.382" y1="11.8269" x2="26.2771" y2="13.9319" gradientUnits="userSpaceOnUse">
<stop stop-color="white" stop-opacity="0"/>
<stop offset="0.0693713" stop-color="#D7EEF9" stop-opacity="0.0346857"/>
<stop offset="0.1545" stop-color="#B0DFF3" stop-opacity="0.0772683"/>
<stop offset="0.247" stop-color="#8DD3EF" stop-opacity="0.1235"/>
<stop offset="0.3467" stop-color="#6DCAEC" stop-opacity="0.1734"/>
<stop offset="0.4565" stop-color="#51C4EA" stop-opacity="0.2282"/>
<stop offset="0.5815" stop-color="#34BFE8" stop-opacity="0.2907"/>
<stop offset="0.735" stop-color="#18BDE8" stop-opacity="0.3675"/>
<stop offset="1" stop-color="#06BCE7" stop-opacity="0.5"/>
</linearGradient>
<clipPath id="clip0_1151_13929">
<rect width="48" height="48" rx="24" transform="matrix(4.37114e-08 -1 -1 -4.37114e-08 48 48)" fill="white"/>
</clipPath>
</defs>
</svg>
