<svg width="10" height="20" viewBox="0 0 10 20" fill="none" xmlns="http://www.w3.org/2000/svg">
<g clip-path="url(#clip0_92_10205)">
<path fill-rule="evenodd" clip-rule="evenodd" d="M9.79009 19.774C9.85659 19.7026 9.90935 19.6177 9.94535 19.5243C9.98135 19.4308 9.99988 19.3306 9.99988 19.2295C9.99988 19.1283 9.98135 19.0281 9.94535 18.9347C9.90935 18.8412 9.85659 18.7563 9.79009 18.6849L1.72525 9.9994L9.79009 1.31391C9.85648 1.2424 9.90915 1.1575 9.94508 1.06406C9.98101 0.970621 9.9995 0.870476 9.9995 0.769339C9.9995 0.668201 9.98101 0.568056 9.94508 0.474617C9.90915 0.38118 9.85648 0.29628 9.79009 0.224766C9.7237 0.15325 9.64488 0.0965214 9.55813 0.0578193C9.47139 0.0191154 9.37841 -0.000804928 9.28452 -0.000804932C9.19063 -0.000804936 9.09765 0.0191154 9.01091 0.0578193C8.92416 0.0965213 8.84534 0.15325 8.77895 0.224766L0.209969 9.45482C0.143469 9.52627 0.0907092 9.61115 0.0547108 9.7046C0.0187115 9.79804 0.00018164 9.89822 0.000181635 9.9994C0.000181631 10.1006 0.0187115 10.2007 0.0547108 10.2942C0.0907092 10.3876 0.143469 10.4725 0.209969 10.544L8.77895 19.774C8.84528 19.8457 8.92408 19.9025 9.01084 19.9413C9.09759 19.98 9.19059 20 9.28452 20C9.37845 20 9.47145 19.98 9.5582 19.9413C9.64496 19.9025 9.72376 19.8457 9.79009 19.774Z" fill="black"/>
</g>
<defs>
<clipPath id="clip0_92_10205">
<rect width="20" height="10" fill="white" transform="matrix(4.37114e-08 -1 -1 -4.37114e-08 10 20)"/>
</clipPath>
</defs>
</svg>
