<svg width="20" height="20" viewBox="0 0 20 20" fill="none" xmlns="http://www.w3.org/2000/svg">
<path d="M10.0002 1.11108C5.09858 1.11108 1.11133 5.09872 1.11133 9.99997C1.11133 14.9012 5.09858 18.8889 10.0002 18.8889C14.9018 18.8889 18.8891 14.9012 18.8891 9.99997C18.8891 5.09872 14.9018 1.11108 10.0002 1.11108ZM13.5339 10.3114L8.34876 13.6447C8.288 13.6841 8.21782 13.7037 8.14838 13.7037C8.08761 13.7037 8.02612 13.6885 7.97116 13.6585C7.85178 13.5934 7.778 13.4689 7.778 13.3333V6.66664C7.778 6.53101 7.85178 6.40657 7.97116 6.34147C8.08834 6.27709 8.23518 6.28105 8.34876 6.35522L13.5339 9.68855C13.6396 9.75654 13.7039 9.87411 13.7039 9.99997C13.7039 10.1258 13.6396 10.2434 13.5339 10.3114Z" fill="#388EE9"/>
</svg>
