<svg width="40" height="40" viewBox="0 0 40 40" fill="none" xmlns="http://www.w3.org/2000/svg">
<path d="M17.8671 18.9333C21.9908 18.9333 25.3337 15.5904 25.3337 11.4667C25.3337 7.34294 21.9908 4 17.8671 4C13.7433 4 10.4004 7.34294 10.4004 11.4667C10.4004 15.5904 13.7433 18.9333 17.8671 18.9333Z" fill="white"/>
<path d="M17.8667 21.0667C14.1903 21.0709 10.6657 22.5332 8.06613 25.1328C5.46654 27.7324 4.00423 31.257 4 34.9333C4 35.2162 4.11238 35.4876 4.31242 35.6876C4.51246 35.8876 4.78377 36 5.06667 36H30.6667C30.9496 36 31.2209 35.8876 31.4209 35.6876C31.621 35.4876 31.7333 35.2162 31.7333 34.9333C31.7291 31.257 30.2668 27.7324 27.6672 25.1328C25.0676 22.5332 21.543 21.0709 17.8667 21.0667Z" fill="white"/>
<path d="M34.933 17.8667H31.733V14.6667C31.733 14.3838 31.6206 14.1125 31.4206 13.9124C31.2206 13.7124 30.9492 13.6 30.6663 13.6C30.3834 13.6 30.1121 13.7124 29.9121 13.9124C29.7121 14.1125 29.5997 14.3838 29.5997 14.6667V17.8667H26.3997C26.1168 17.8667 25.8455 17.9791 25.6454 18.1791C25.4454 18.3791 25.333 18.6504 25.333 18.9333C25.333 19.2162 25.4454 19.4875 25.6454 19.6876C25.8455 19.8876 26.1168 20 26.3997 20H29.5997V23.2C29.5997 23.4829 29.7121 23.7542 29.9121 23.9543C30.1121 24.1543 30.3834 24.2667 30.6663 24.2667C30.9492 24.2667 31.2206 24.1543 31.4206 23.9543C31.6206 23.7542 31.733 23.4829 31.733 23.2V20H34.933C35.2159 20 35.4872 19.8876 35.6873 19.6876C35.8873 19.4875 35.9997 19.2162 35.9997 18.9333C35.9997 18.6504 35.8873 18.3791 35.6873 18.1791C35.4872 17.9791 35.2159 17.8667 34.933 17.8667Z" fill="white"/>
</svg>
