<svg width="38" height="38" viewBox="0 0 38 38" fill="none" xmlns="http://www.w3.org/2000/svg">
<g clip-path="url(#clip0_1682_12721)">
<path d="M36.791 13.553L19.6581 1.02839C19.2743 0.747779 18.7261 0.747779 18.3423 1.02839L1.20943 13.553C0.4416 14.1143 0.880237 15.2371 1.86731 15.2371H36.133C37.1202 15.2371 37.5588 14.1143 36.791 13.553ZM19.0002 12.2324C17.2378 12.2324 15.8042 10.8063 15.8042 9.05325C15.8042 7.30019 17.2378 5.87406 19.0002 5.87406C20.7625 5.87406 22.1962 7.30019 22.1962 9.05325C22.1962 10.8063 20.7626 12.2324 19.0002 12.2324Z" fill="#B3B8CD"/>
<path d="M18.9999 10.102C19.5883 10.102 20.0653 9.63256 20.0653 9.05348C20.0653 8.47441 19.5883 8.00497 18.9999 8.00497C18.4115 8.00497 17.9346 8.47441 17.9346 9.05348C17.9346 9.63256 18.4115 10.102 18.9999 10.102Z" fill="#B3B8CD"/>
<path d="M30.3555 17.368H34.8075V30.5992H30.3555V17.368Z" fill="#B3B8CD"/>
<path d="M21.3018 17.368H25.7537V30.5992H21.3018V17.368Z" fill="#B3B8CD"/>
<path d="M12.248 17.368H16.7V30.5992H12.248V17.368Z" fill="#B3B8CD"/>
<path d="M3.19531 17.368H7.6473V30.5992H3.19531V17.368Z" fill="#B3B8CD"/>
<path opacity="0.5" d="M0.818359 37.1818V33.7952C0.818359 33.2068 1.29535 32.7298 1.8837 32.7298H36.1167C36.705 32.7298 37.182 33.2068 37.182 33.7952V37.1818H0.818359Z" fill="#B3B8CD"/>
</g>
<defs>
<clipPath id="clip0_1682_12721">
<rect width="36.3636" height="36.3636" fill="white" transform="translate(0.818359 0.818176)"/>
</clipPath>
</defs>
</svg>
