<svg width="38" height="38" viewBox="0 0 38 38" fill="none" xmlns="http://www.w3.org/2000/svg">
<g clip-path="url(#clip0_1682_12768)">
<path d="M36.1156 3.76994H20.065V1.88349C20.065 1.29515 19.588 0.818176 18.9996 0.818176C18.4113 0.818176 17.9343 1.29515 17.9343 1.88349V3.76994H1.88367C1.29533 3.76994 0.818359 4.24691 0.818359 4.83525V24.7866H37.1809V4.83525C37.1809 4.24691 36.704 3.76994 36.1156 3.76994Z" fill="#B3B8CD"/>
<path opacity="0.5" d="M0.818501 30.4046C0.818501 30.9929 1.29548 31.4699 1.88381 31.4699H12.5151L10.14 35.5837C9.84587 36.0932 10.0204 36.7447 10.5299 37.0389C10.6977 37.1358 10.8808 37.1818 11.0616 37.1818C11.4298 37.1818 11.7879 36.9908 11.9851 36.649L14.9753 31.4699H17.9344V36.1163C17.9344 36.7047 18.4114 37.1817 18.9997 37.1817C19.588 37.1817 20.065 36.7047 20.065 36.1163V31.4699H23.0242L26.0143 36.649C26.2116 36.9908 26.5697 37.1818 26.9378 37.1818C27.1185 37.1818 27.3017 37.1358 27.4695 37.0389C27.979 36.7447 28.1536 36.0932 27.8594 35.5837L25.4843 31.4699H36.1156C36.704 31.4699 37.1809 30.9929 37.1809 30.4046V26.9173H0.818359V30.4046H0.818501Z" fill="#B3B8CD"/>
</g>
<defs>
<clipPath id="clip0_1682_12768">
<rect width="36.3636" height="36.3636" fill="white" transform="translate(0.818359 0.818176)"/>
</clipPath>
</defs>
</svg>
