<svg width="38" height="38" viewBox="0 0 38 38" fill="none" xmlns="http://www.w3.org/2000/svg">
<g clip-path="url(#clip0_1682_12758)">
<path d="M2.01953 32.4479V35.3267C2.01953 35.915 2.49646 36.3919 3.08474 36.3919C3.67302 36.3919 4.14995 35.915 4.14995 35.3267V32.4479C3.80873 32.5332 3.45203 32.5791 3.08474 32.5791C2.71746 32.5791 2.36075 32.5332 2.01953 32.4479Z" fill="#B3B8CD"/>
<path d="M5.18054 29.0603C5.65941 27.905 5.11107 26.5803 3.9558 26.1014C2.80053 25.6226 1.4758 26.1709 0.996939 27.3262C0.518077 28.4814 1.06641 29.8062 2.22168 30.285C3.37696 30.7639 4.70168 30.2155 5.18054 29.0603Z" fill="#B3B8CD"/>
<path opacity="0.5" d="M19.0005 18.217C18.4625 18.217 17.9326 18.1261 17.4254 17.9468L6.00684 13.9115V22.1786C6.00684 22.7047 6.31908 23.1782 6.79942 23.3931C14.552 26.8615 23.4491 26.8615 31.2017 23.3931C31.6819 23.1782 31.9943 22.7048 31.9943 22.1786V13.9115L20.5757 17.9468C20.0685 18.1261 19.5386 18.217 19.0005 18.217Z" fill="#B3B8CD"/>
<path d="M36.2663 7.5525L19.8654 1.75648C19.3056 1.55863 18.6948 1.55863 18.1348 1.75648L1.73407 7.5525C0.513123 7.98398 0.513123 9.71061 1.73407 10.1421L2.01926 10.2429V23.9217C2.36048 23.8364 2.71718 23.7905 3.08447 23.7905C3.45175 23.7905 3.80846 23.8364 4.14968 23.9217V10.9958L18.1349 15.9381C18.6948 16.136 19.3056 16.136 19.8655 15.9381L36.2663 10.1421C37.4872 9.71061 37.4872 7.98398 36.2663 7.5525Z" fill="#B3B8CD"/>
</g>
<defs>
<clipPath id="clip0_1682_12758">
<rect width="36.3636" height="36.3636" fill="white" transform="translate(0.818359 0.818176)"/>
</clipPath>
</defs>
</svg>
