<svg width="40" height="40" viewBox="0 0 40 40" fill="none" xmlns="http://www.w3.org/2000/svg">
<path opacity="0.55" d="M20 23.3332C17.7916 23.3332 16 25.1248 16 27.3332C16 29.5416 17.7916 31.3332 20 31.3332C22.2084 31.3332 24 29.5416 24 27.3332C24 25.1252 22.2084 23.3332 20 23.3332Z" fill="#B3B8CD"/>
<path opacity="0.55" d="M22.6664 33.3332H17.3328C15.86 33.3332 14.666 34.5272 14.666 36H25.3328C25.3328 34.5272 24.1404 33.3332 22.6664 33.3332Z" fill="#B3B8CD"/>
<path opacity="0.55" d="M32 23.3332C29.7916 23.3332 28 25.1248 28 27.3332C28 29.5416 29.7916 31.3332 32 31.3332C34.2084 31.3332 36 29.5416 36 27.3332C36 25.1252 34.2084 23.3332 32 23.3332Z" fill="#B3B8CD"/>
<path opacity="0.55" d="M35.9992 33.3332H29.3324C27.8596 33.3332 26.666 34.5272 26.666 36H35.9992V33.3332Z" fill="#B3B8CD"/>
<path d="M8 4C5.7916 4 4 5.7916 4 8C4 10.2084 5.7916 12 8 12C10.2088 12 12 10.2084 12 8C12 5.7916 10.2088 4 8 4Z" fill="#B3B8CD"/>
<path d="M14.6668 4V11.5C15.7136 11.1 16.68 10.4728 17.4984 9.6264L19.4156 11.4792C17.4288 13.5352 14.7952 14.6668 11.9996 14.6668H4V36H6.6672V28H9.3332V36H12V17.3332C12.9136 17.3332 13.8052 17.2368 14.6668 17.0532V21.3332H36V4H14.6668Z" fill="#B3B8CD"/>
</svg>
