<svg width="16" height="16" viewBox="0 0 16 16" fill="none" xmlns="http://www.w3.org/2000/svg">
<g clip-path="url(#clip0_3760_7535)">
<path d="M15.8139 7.45264C15.5707 7.06055 15.141 6.82617 14.6644 6.82617H4.0531C3.5271 6.82617 3.04871 7.12268 2.83399 7.58179L0.0273438 13.4664C0.133301 13.8973 0.535767 14.2192 1.01514 14.2192H12.3048C12.7875 14.2192 13.2286 13.9463 13.4442 13.5144L15.8701 8.6521C16.0617 8.26733 16.0404 7.81897 15.8139 7.45264Z" fill="#BEC0C4"/>
<path d="M2.26257 6.67676C2.47705 6.21778 2.95557 5.92114 3.48169 5.92114H13.474V4.64307C13.474 4.11621 13.0295 3.6875 12.4833 3.6875H6.65686C6.64832 3.6875 6.64246 3.6853 6.64026 3.68372L5.59742 2.22559C5.41272 1.96692 5.10767 1.8125 4.78174 1.8125H0.990967C0.444458 1.8125 0 2.24121 0 2.76807V11.4204L2.26257 6.67676Z" fill="#BEC0C4"/>
</g>
<defs>
<clipPath id="clip0_3760_7535">
<rect width="16" height="16" fill="white"/>
</clipPath>
</defs>
</svg>
