<svg width="24" height="24" viewBox="0 0 24 24" fill="none" xmlns="http://www.w3.org/2000/svg">
<g clip-path="url(#clip0_3584_28249)">
<path d="M6 0C5.175 0 4.5 0.675 4.5 1.5V22.5C4.5 23.325 5.175 24 6 24H21C21.825 24 22.5 23.325 22.5 22.5V6L16.5 0H6Z" fill="#E2E5E7"/>
<path d="M18 6H22.5L16.5 0V4.5C16.5 5.325 17.175 6 18 6Z" fill="#B0B7BD"/>
<path d="M22.5 10.5L18 6H22.5V10.5Z" fill="#CAD1D8"/>
<path d="M19.5 19.5C19.5 19.9125 19.1625 20.25 18.75 20.25H2.25C1.8375 20.25 1.5 19.9125 1.5 19.5V12C1.5 11.5875 1.8375 11.25 2.25 11.25H18.75C19.1625 11.25 19.5 11.5875 19.5 12V19.5Z" fill="#F15642"/>
<path d="M4.76904 14.2103C4.76904 14.0123 4.92504 13.7963 5.17629 13.7963H6.56154C7.34154 13.7963 8.04354 14.3183 8.04354 15.3188C8.04354 16.2668 7.34154 16.7948 6.56154 16.7948H5.56029V17.5868C5.56029 17.8508 5.39229 18 5.17629 18C4.97829 18 4.76904 17.8508 4.76904 17.5868V14.2103ZM5.56029 14.5515V16.0455H6.56154C6.96354 16.0455 7.28154 15.6908 7.28154 15.3188C7.28154 14.8995 6.96354 14.5515 6.56154 14.5515H5.56029Z" fill="white"/>
<path d="M9.2182 18C9.0202 18 8.8042 17.892 8.8042 17.6287V14.2222C8.8042 14.007 9.0202 13.8502 9.2182 13.8502H10.5914C13.3319 13.8502 13.2719 18 10.6454 18H9.2182ZM9.5962 14.5822V17.2687H10.5914C12.2107 17.2687 12.2827 14.5822 10.5914 14.5822H9.5962Z" fill="white"/>
<path d="M14.244 14.6302V15.5835H15.7732C15.9892 15.5835 16.2052 15.7995 16.2052 16.0087C16.2052 16.2067 15.9892 16.3687 15.7732 16.3687H14.244V17.628C14.244 17.838 14.0947 17.9992 13.8847 17.9992C13.6207 17.9992 13.4595 17.838 13.4595 17.628V14.2215C13.4595 14.0062 13.6215 13.8495 13.8847 13.8495H15.99C16.254 13.8495 16.41 14.0062 16.41 14.2215C16.41 14.4135 16.254 14.6295 15.99 14.6295H14.244V14.6302Z" fill="white"/>
<path d="M18.75 20.25H4.5V21H18.75C19.1625 21 19.5 20.6625 19.5 20.25V19.5C19.5 19.9125 19.1625 20.25 18.75 20.25Z" fill="#CAD1D8"/>
</g>
<defs>
<clipPath id="clip0_3584_28249">
<rect width="24" height="24" fill="white"/>
</clipPath>
</defs>
</svg>
