<svg width="8" height="16" viewBox="0 0 8 16" fill="none" xmlns="http://www.w3.org/2000/svg">
<g clip-path="url(#clip0_1682_12560)">
<path fill-rule="evenodd" clip-rule="evenodd" d="M0.16783 15.8192C0.11463 15.7621 0.0724219 15.6942 0.0436228 15.6194C0.0148236 15.5446 -2.34074e-08 15.4645 -2.69453e-08 15.3836C-3.04832e-08 15.3026 0.0148236 15.2225 0.0436227 15.1477C0.0724219 15.073 0.11463 15.0051 0.16783 14.9479L6.6197 7.99952L0.16783 1.05113C0.114716 0.993917 0.0725834 0.925997 0.0438384 0.851246C0.0150934 0.776496 0.000298427 0.696379 0.000298423 0.615469C0.00029842 0.534559 0.0150933 0.454442 0.0438384 0.379692C0.0725834 0.304941 0.114716 0.237021 0.16783 0.179811C0.220944 0.122599 0.283999 0.0772161 0.353395 0.0462532C0.422792 0.0152902 0.497171 -0.000644706 0.572286 -0.000644709C0.6474 -0.000644712 0.721779 0.0152902 0.791176 0.0462532C0.860573 0.0772161 0.923628 0.122599 0.976742 0.17981L7.83193 7.56386C7.88513 7.62102 7.92733 7.68892 7.95613 7.76368C7.98493 7.83843 7.99976 7.91858 7.99976 7.99952C7.99976 8.08045 7.98493 8.1606 7.95613 8.23535C7.92733 8.31011 7.88513 8.37802 7.83193 8.43517L0.976742 15.8192C0.923677 15.8765 0.860637 15.922 0.791234 15.953C0.721831 15.984 0.647427 16 0.572286 16C0.497145 16 0.422742 15.984 0.353339 15.953C0.283936 15.922 0.220896 15.8765 0.16783 15.8192Z" fill="#374253"/>
</g>
<defs>
<clipPath id="clip0_1682_12560">
<rect width="16" height="8" fill="white" transform="translate(0 16) rotate(-90)"/>
</clipPath>
</defs>
</svg>
