<svg width="38" height="38" viewBox="0 0 38 38" fill="none" xmlns="http://www.w3.org/2000/svg">
<g clip-path="url(#clip0_1682_12742)">
<path d="M7.19238 19.1307H9.34238V21.1808H7.19238V19.1307Z" fill="#B3B8CD"/>
<path d="M17.9766 19.0807H20.0267V21.2307H17.9766V19.0807Z" fill="#B3B8CD"/>
<path opacity="0.5" d="M16.5068 37.1819H21.4955V28.6478L16.5068 28.6443V37.1819Z" fill="#B3B8CD"/>
<path opacity="0.5" d="M19.0016 9.06918C18.1074 9.06918 17.3799 9.79667 17.3799 10.6909C17.3799 11.5851 18.1074 12.3126 19.0016 12.3126C19.8959 12.3126 20.6233 11.5852 20.6233 10.6909C20.6233 9.79667 19.8958 9.06918 19.0016 9.06918Z" fill="#B3B8CD"/>
<path d="M7.19238 27.6534H9.34238V29.7036H7.19238V27.6534Z" fill="#B3B8CD"/>
<path d="M36.4837 13.501H28.8284V8.76038C28.8284 8.55093 28.7313 8.35328 28.5655 8.22522L19.3797 0.959099C19.1357 0.770747 18.7953 0.771315 18.5519 0.960377L9.43532 8.22522C9.27047 8.35328 9.17402 8.55029 9.17402 8.7591V13.5011H1.51877C1.1454 13.5011 0.842773 13.8037 0.842773 14.1771V37.1818H14.3762V27.5781C14.3762 26.9895 14.8536 26.5124 15.4423 26.5128L22.5617 26.5178C23.1497 26.5183 23.6262 26.9951 23.6262 27.5832V37.1818H37.1597V14.177C37.1597 13.8036 36.857 13.501 36.4837 13.501ZM11.473 30.769C11.473 31.3573 10.996 31.8343 10.4076 31.8343H6.12694C5.53858 31.8343 5.06159 31.3573 5.06159 30.769V26.5881C5.06159 25.9997 5.53858 25.5227 6.12694 25.5227H10.4076C10.996 25.5227 11.473 25.9997 11.473 26.5881V30.769ZM11.473 22.2462C11.473 22.8346 10.996 23.3116 10.4076 23.3116H6.12694C5.53858 23.3116 5.06159 22.8346 5.06159 22.2462V18.0653C5.06159 17.477 5.53858 17 6.12694 17H10.4076C10.996 17 11.473 17.477 11.473 18.0653V22.2462ZM22.157 22.2962C22.157 22.8845 21.68 23.3615 21.0916 23.3615H16.9108C16.3225 23.3615 15.8455 22.8845 15.8455 22.2962V18.0155C15.8455 17.4271 16.3225 16.9502 16.9108 16.9502H21.0916C21.68 16.9502 22.157 17.4271 22.157 18.0155V22.2962ZM19.0012 14.4433C16.9322 14.4433 15.2488 12.76 15.2488 10.6908C15.2488 8.62174 16.9321 6.93843 19.0012 6.93843C21.0703 6.93843 22.7536 8.62174 22.7536 10.6908C22.7536 12.76 21.0703 14.4433 19.0012 14.4433ZM32.9409 30.769C32.9409 31.3573 32.4639 31.8343 31.8756 31.8343H27.5948C27.0065 31.8343 26.5295 31.3573 26.5295 30.769V26.5881C26.5295 25.9997 27.0065 25.5227 27.5948 25.5227H31.8756C32.4639 25.5227 32.9409 25.9997 32.9409 26.5881V30.769ZM32.9409 22.2462C32.9409 22.8346 32.4639 23.3116 31.8756 23.3116H27.5948C27.0065 23.3116 26.5295 22.8346 26.5295 22.2462V18.0653C26.5295 17.477 27.0065 17 27.5948 17H31.8756C32.4639 17 32.9409 17.477 32.9409 18.0653V22.2462Z" fill="#B3B8CD"/>
<path d="M28.6602 27.6534H30.8102V29.7036H28.6602V27.6534Z" fill="#B3B8CD"/>
<path d="M28.6602 19.1307H30.8102V21.1808H28.6602V19.1307Z" fill="#B3B8CD"/>
</g>
<defs>
<clipPath id="clip0_1682_12742">
<rect width="36.3636" height="36.3636" fill="white" transform="translate(0.818359 0.818176)"/>
</clipPath>
</defs>
</svg>
