<svg width="20" height="20" viewBox="0 0 20 20" fill="none" xmlns="http://www.w3.org/2000/svg">
<path d="M10.0056 15.5419C10.0056 15.8551 9.82461 16.1396 9.54143 16.2724C9.43194 16.3242 9.31462 16.3493 9.19806 16.3493C9.01348 16.3493 8.83061 16.2858 8.68291 16.1633L4.26932 12.5061H1.91864C1.47285 12.5064 1.11133 12.1447 1.11133 11.6989V8.48247C1.11133 8.03649 1.47285 7.67496 1.91864 7.67496H4.26951L8.6831 4.01768C8.92424 3.81781 9.25863 3.77519 9.54162 3.90895C9.82461 4.04175 10.0058 4.32646 10.0058 4.63945L10.0056 15.5419ZM13.1081 14.2804C13.0885 14.2818 13.0695 14.2825 13.0501 14.2825C12.8368 14.2825 12.6312 14.1983 12.4793 14.0462L12.3713 13.9378C12.0882 13.6552 12.0549 13.2075 12.2934 12.8861C12.898 12.071 13.2171 11.1047 13.2171 10.091C13.2171 9.00068 12.8548 7.97802 12.1692 7.13344C11.9082 6.81242 11.9322 6.34619 12.2248 6.05383L12.3325 5.94587C12.4938 5.7846 12.7099 5.6967 12.9438 5.71065C13.1716 5.72212 13.3843 5.82931 13.5287 6.00587C14.4797 7.16955 14.9821 8.5824 14.9821 10.0912C14.9821 11.4964 14.5378 12.834 13.6971 13.9587C13.5566 14.1461 13.3418 14.2638 13.1081 14.2804ZM16.4459 16.7754C16.3 16.9479 16.0888 17.0515 15.8628 17.061C15.8517 17.0614 15.8404 17.0618 15.8289 17.0618C15.6151 17.0618 15.4099 16.9773 15.258 16.8254L15.1519 16.7194C14.8556 16.4232 14.8355 15.9495 15.1049 15.6289C16.407 14.0804 17.1243 12.1138 17.1243 10.091C17.1243 7.987 16.3563 5.96154 14.9624 4.3878C14.6798 4.06831 14.6941 3.58469 14.9949 3.28278L15.1007 3.17673C15.2578 3.0189 15.4619 2.93196 15.696 2.93941C15.9182 2.94571 16.1284 3.04393 16.2761 3.21017C17.961 5.10722 18.8891 7.55114 18.8891 10.091C18.8895 12.5347 18.0218 14.9087 16.4459 16.7754Z" fill="#388EE9"/>
</svg>
