<svg width="20" height="20" viewBox="0 0 20 20" fill="none" xmlns="http://www.w3.org/2000/svg">
<path d="M15.5217 9.32188C16.1106 9.337 16.576 9.82766 16.5606 10.4183C16.5449 11.0072 16.0549 11.4726 15.466 11.4566C14.8769 11.4414 14.4117 10.9508 14.4266 10.3614C14.4417 9.77211 14.9322 9.307 15.5217 9.32188ZM5.77753 6.68655C6.16064 6.68655 6.43153 6.95744 6.43153 7.29433V8.31388H7.45086C7.78664 8.31388 8.05753 8.58477 8.05753 8.96788C8.05753 9.34988 7.78664 9.62077 7.45086 9.62077H6.43153V10.6417C6.43153 10.977 6.16064 11.2479 5.77753 11.2479C5.39442 11.2479 5.12375 10.977 5.12375 10.6417V9.62077H4.10397C3.76864 9.62077 3.49775 9.34988 3.49775 8.96788C3.49775 8.58477 3.76864 8.31388 4.10397 8.31388H5.12375V7.29433C5.12375 6.95744 5.39442 6.68655 5.77753 6.68655ZM13.746 6.47833C14.3353 6.49433 14.8004 6.98411 14.7855 7.57433C14.7695 8.16344 14.2784 8.629 13.6895 8.61255C13.1006 8.59766 12.6349 8.10677 12.6502 7.51788C12.6662 6.92833 13.1557 6.463 13.746 6.47833ZM5.57953 3.57544C3.40264 3.57544 2.22775 4.94344 2.04353 6.62055L1.25797 13.7906C1.07508 15.4668 2.51953 16.4426 3.61553 16.4426C5.76842 16.4426 7.51375 12.9357 8.67797 12.9357H11.3689C12.5333 12.9357 14.2773 16.4426 16.4313 16.4426C17.5273 16.4426 19.0122 15.4621 18.7877 13.7906L18.002 6.62055C17.7773 4.94944 16.6431 3.57544 14.4671 3.57544C12.8686 3.57544 12.5237 4.44366 10.7531 4.44366H9.29375C7.52308 4.44366 7.17686 3.57544 5.57953 3.57544Z" fill="#388EE9"/>
</svg>
