<svg width="16" height="16" viewBox="0 0 16 16" fill="none" xmlns="http://www.w3.org/2000/svg">
<path fill-rule="evenodd" clip-rule="evenodd" d="M10.6673 8.66665H8.00065C7.63265 8.66665 7.33398 8.36865 7.33398 7.99998V5.33331C7.33398 4.96465 7.63265 4.66665 8.00065 4.66665C8.36865 4.66665 8.66732 4.96465 8.66732 5.33331V7.33331H10.6673C11.036 7.33331 11.334 7.63131 11.334 7.99998C11.334 8.36865 11.036 8.66665 10.6673 8.66665ZM8.00065 1.33331C4.32465 1.33331 1.33398 4.32398 1.33398 7.99998C1.33398 11.676 4.32465 14.6666 8.00065 14.6666C11.6767 14.6666 14.6673 11.676 14.6673 7.99998C14.6673 4.32398 11.6767 1.33331 8.00065 1.33331Z" fill="#7D828A"/>
</svg>
