<svg width="20" height="20" viewBox="0 0 20 20" fill="none" xmlns="http://www.w3.org/2000/svg">
<path d="M16.8795 1.66748H3.12205C2.01311 1.66748 1.11133 2.56896 1.11133 3.67921V16.3231C1.11133 17.432 2.01311 18.3326 3.12205 18.3326H16.8794C17.9883 18.3326 18.8892 17.432 18.8892 16.3231V3.67921C18.8892 2.56896 17.9884 1.66748 16.8795 1.66748ZM12.6074 4.65931C13.6798 4.65931 14.5495 5.52907 14.5495 6.60141C14.5495 7.67375 13.6798 8.54351 12.6074 8.54351C11.5347 8.54351 10.6653 7.67375 10.6653 6.60141C10.6653 5.52907 11.5347 4.65931 12.6074 4.65931ZM16.2489 16.4739H10.0001H4.02972C3.49334 16.4739 3.25446 16.0858 3.49626 15.6071L6.82926 9.00544C7.07076 8.52673 7.53102 8.484 7.85697 8.90992L11.2084 13.2897C11.5344 13.7157 12.1041 13.752 12.4811 13.3703L13.301 12.5401C13.6778 12.1584 14.2329 12.2057 14.5404 12.6449L16.6635 15.6776C16.9704 16.1175 16.7853 16.4739 16.2489 16.4739Z" fill="#388EE9"/>
</svg>
