<svg width="16" height="16" viewBox="0 0 16 16" fill="none" xmlns="http://www.w3.org/2000/svg">
<path d="M9.69016 1H12.7299C12.9191 1 13.0724 1.15336 13.0724 1.34251V14.6575C13.0724 14.8466 12.9191 15 12.7299 15H9.69016C9.50102 15 9.34766 14.8466 9.34766 14.6575V1.34251C9.34766 1.15336 9.50102 1 9.69016 1Z" fill="black"/>
<path d="M3.26829 1H6.30804C6.49719 1 6.65055 1.15336 6.65055 1.34251V14.6575C6.65055 14.8466 6.49719 15 6.30804 15H3.26829C3.07914 15 2.92578 14.8466 2.92578 14.6575V1.34251C2.92578 1.15336 3.07914 1 3.26829 1Z" fill="black"/>
</svg>
