<svg width="12" height="14" viewBox="0 0 12 14" fill="none" xmlns="http://www.w3.org/2000/svg">
<path d="M11.1593 3.8867L8.19935 0.553372C8.13702 0.48431 8.06093 0.429058 7.97596 0.391169C7.891 0.35328 7.79905 0.333592 7.70602 0.333372H2.37268C2.15118 0.33073 1.93133 0.371745 1.72568 0.454076C1.52003 0.536407 1.33262 0.658441 1.17414 0.813208C1.01566 0.967975 0.889212 1.15245 0.802028 1.35608C0.714844 1.55972 0.668627 1.77854 0.666016 2.00004V12C0.668627 12.2215 0.714844 12.4404 0.802028 12.644C0.889212 12.8476 1.01566 13.0321 1.17414 13.1869C1.33262 13.3416 1.52003 13.4637 1.72568 13.546C1.93133 13.6283 2.15118 13.6693 2.37268 13.6667H9.62602C9.84752 13.6693 10.0674 13.6283 10.273 13.546C10.4787 13.4637 10.6661 13.3416 10.8246 13.1869C10.983 13.0321 11.1095 12.8476 11.1967 12.644C11.2839 12.4404 11.3301 12.2215 11.3327 12V4.33337C11.3323 4.16815 11.2705 4.00897 11.1593 3.8867ZM7.33268 1.66671L9.82602 4.33337H7.82602C7.7562 4.32916 7.68793 4.31108 7.62518 4.28019C7.56243 4.24931 7.50645 4.20623 7.46053 4.15348C7.41461 4.10073 7.37965 4.03936 7.3577 3.97295C7.33575 3.90655 7.32724 3.83643 7.33268 3.76671V1.66671Z" fill="white"/>
</svg>
