<svg width="77" height="34" viewBox="0 0 77 34" fill="none" xmlns="http://www.w3.org/2000/svg">
<g clip-path="url(#clip0_3703_6861)">
<path d="M4.69709 27.9487H0.691322C0.310747 27.9487 0.000976562 27.6556 0.000976562 27.2955C0.000976562 26.9354 0.310747 26.6423 0.691322 26.6423H4.69532C5.0759 26.6423 5.38567 26.9354 5.38567 27.2955C5.38744 27.6556 5.07767 27.9487 4.69709 27.9487Z" fill="#E7004C"/>
<path d="M4.69709 33.6315H0.691322C0.310747 33.6315 0.000976562 33.3384 0.000976562 32.9783C0.000976562 32.6182 0.310747 32.3251 0.691322 32.3251H4.69532C5.0759 32.3251 5.38567 32.6182 5.38567 32.9783C5.38744 33.3384 5.07767 33.6315 4.69709 33.6315Z" fill="#80BC00"/>
<path d="M0.691321 33.6315C0.310747 33.6315 0.000976562 33.3384 0.000976562 32.9783V27.2955C0.000976562 26.9354 0.310747 26.6423 0.691321 26.6423C1.0719 26.6423 1.38167 26.9354 1.38167 27.2955V32.9783C1.38167 33.3384 1.07367 33.6315 0.691321 33.6315Z" fill="#0082CA"/>
<path d="M0.691321 26.6406C0.310747 26.6406 0.000976562 26.9337 0.000976562 27.2938C0.000976562 27.6539 0.310747 27.947 0.691321 27.947H1.38167V27.2938C1.38167 26.9337 1.07367 26.6406 0.691321 26.6406Z" fill="#C028B9"/>
<path d="M1.38167 32.3251H0.691321C0.310747 32.3251 0.000976562 32.6182 0.000976562 32.9783C0.000976562 33.3384 0.310747 33.6315 0.691321 33.6315C1.0719 33.6315 1.38167 33.3384 1.38167 32.9783V32.3251Z" fill="#00754A"/>
<path d="M4.11057 29.4828H1.38281V30.7893H4.11057C4.49114 30.7893 4.80091 30.4961 4.80091 30.136C4.80091 29.776 4.49291 29.4828 4.11057 29.4828Z" fill="#FAA21B"/>
<path d="M1.38167 29.4828H0.691321C0.310747 29.4828 0.000976562 29.776 0.000976562 30.136C0.000976562 30.4961 0.310747 30.7893 0.691321 30.7893H1.38167V29.4828Z" fill="#5D6339"/>
<path d="M12.2949 27.3256V32.975C12.2949 33.3351 12.6047 33.6282 12.9853 33.6282C13.3658 33.6282 13.6756 33.3351 13.6756 32.975V29.0708V27.2904L12.2949 27.3256Z" fill="#E7004C"/>
<path d="M12.46 27.7142L13.676 29.0708L17.5508 33.3937C17.549 33.3903 17.5455 33.387 17.5437 33.3853C17.68 33.5411 17.8464 33.593 17.7916 33.5679C18.4642 33.861 19.0802 33.0805 18.6076 32.5512L17.3915 31.1946L13.5203 26.8751L12.46 27.7142Z" fill="#FAA21B"/>
<path d="M18.7723 32.913V27.2904C18.7723 26.9303 18.4625 26.6372 18.0819 26.6372C17.7014 26.6372 17.3916 26.9303 17.3916 27.2904V31.1946V32.975C17.3916 33.4506 17.8837 33.6081 17.7916 33.5679C18.3209 33.799 18.8148 33.3652 18.7723 32.913Z" fill="#80BC00"/>
<path d="M17.3916 31.1946V32.975C17.3916 33.4506 17.8837 33.6081 17.7916 33.5679C18.4643 33.861 19.0803 33.0805 18.6077 32.5529L17.3916 31.1946Z" fill="#5D6339"/>
<path d="M12.9871 26.6372C12.4029 26.6372 12.079 27.2871 12.4614 27.7125L13.6774 29.0692V27.2888C13.6774 26.9303 13.3677 26.6372 12.9871 26.6372Z" fill="#8E2A2A"/>
<path d="M32.2286 32.444C32.218 32.4894 32.2039 32.5347 32.1826 32.58C32.2056 32.533 32.2198 32.5078 32.2286 32.444Z" fill="#8E54A2"/>
<path d="M32.243 30.2181L30.8623 30.8713V32.3134C30.8623 32.6735 31.1721 32.9666 31.5526 32.9666C31.9155 32.9666 32.1722 32.7204 32.2306 32.4323C32.2306 32.4374 32.2288 32.4407 32.2288 32.4441C32.2395 32.4005 32.243 32.357 32.243 32.3134V30.2181Z" fill="#C028B9"/>
<path d="M29.3485 33.7639C30.322 33.7639 31.3062 33.4105 31.993 32.8142C32.2762 32.5898 32.3488 32.1593 32.055 31.8645C31.9187 31.7272 31.7346 31.6585 31.5505 31.6585C31.2106 31.6585 31.0938 31.8461 30.8601 32.0052C30.4388 32.2916 29.8919 32.4575 29.3467 32.4575V33.7639H29.3485Z" fill="#E7004C"/>
<path d="M26.9196 30.1595C26.9196 28.8916 28.01 27.8616 29.3482 27.8616V26.5552C27.247 26.5552 25.5371 28.1731 25.5371 30.1612H26.9196V30.1595Z" fill="#0082CA"/>
<path d="M26.9198 30.1595H25.5391C25.5391 32.1476 27.249 33.7638 29.3501 33.7638V32.4574C28.0101 32.4574 26.9198 31.4274 26.9198 30.1595Z" fill="#FAA21B"/>
<path d="M26.2294 29.5063C25.8488 29.5063 25.5391 29.7994 25.5391 30.1595C25.5391 30.5196 25.8488 30.8127 26.2294 30.8127C26.61 30.8127 26.9198 30.5196 26.9198 30.1595C26.9198 29.7994 26.61 29.5063 26.2294 29.5063Z" fill="#5D6339"/>
<path d="M29.3485 32.4574C28.968 32.4574 28.6582 32.7505 28.6582 33.1106C28.6582 33.4707 28.968 33.7638 29.3485 33.7638C29.7291 33.7638 30.0389 33.4707 30.0389 33.1106C30.0389 32.7505 29.7309 32.4574 29.3485 32.4574Z" fill="#EC2027"/>
<path d="M32.1826 32.5797C32.1489 32.6484 32.1047 32.712 32.0498 32.7656C32.1064 32.7104 32.1507 32.6467 32.1826 32.5797Z" fill="#ED1660"/>
<path d="M29.3485 27.8616C29.9804 27.8616 30.5787 28.0894 31.0318 28.5031C31.1664 28.6253 31.3381 28.6856 31.5098 28.6856C31.6903 28.6856 31.8726 28.6186 32.0072 28.4846C32.2709 28.225 32.2638 27.8113 31.9877 27.5618C31.2743 26.9119 30.3362 26.5552 29.3467 26.5552V27.8616H29.3485Z" fill="#80BC00"/>
<path d="M29.3485 26.5535C28.968 26.5535 28.6582 26.8466 28.6582 27.2067C28.6582 27.5668 28.968 27.8599 29.3485 27.8599C29.7291 27.8599 30.0389 27.5668 30.0389 27.2067C30.0389 26.8466 29.7309 26.5535 29.3485 26.5535Z" fill="#00754A"/>
<path d="M31.5526 31.6585C31.2128 31.6585 31.096 31.8461 30.8623 32.0052V32.3117C30.8623 32.6718 31.1721 32.9649 31.5526 32.9649C32.1563 32.9649 32.4696 32.2816 32.0554 31.8645C31.9208 31.7289 31.7367 31.6585 31.5526 31.6585Z" fill="#8E2A2A"/>
<path d="M31.5524 29.5649H29.0937C28.7131 29.5649 28.4033 29.858 28.4033 30.2181C28.4033 30.5782 28.7131 30.8713 29.0937 30.8713H30.862L31.5524 29.5649Z" fill="#FAA21B"/>
<path d="M31.5526 29.5649C31.1721 29.5649 30.8623 29.858 30.8623 30.2181V30.8713H31.5526C31.9332 30.8713 32.243 30.5782 32.243 30.2181C32.243 29.8564 31.9332 29.5649 31.5526 29.5649Z" fill="#8E2A2A"/>
<path d="M39.9882 26.6406C39.6076 26.6406 39.2979 26.9337 39.2979 27.2938V32.9767C39.2979 33.3368 39.6076 33.6299 39.9882 33.6299C39.6076 33.6299 39.2979 33.3368 39.2979 32.9767C39.2979 32.6166 39.6076 32.3235 39.9882 32.3235H40.6785V27.2938C40.6785 26.9337 40.3688 26.6406 39.9882 26.6406Z" fill="#80BC00"/>
<path d="M43.5425 32.3251H40.6767V32.9783C40.6767 33.3384 40.3669 33.6315 39.9863 33.6315H43.5425C43.9231 33.6315 44.2328 33.3384 44.2328 32.9783C44.2328 32.6182 43.9248 32.3251 43.5425 32.3251Z" fill="#E7004C"/>
<path d="M40.6785 32.3251H39.9882C39.6076 32.3251 39.2979 32.6182 39.2979 32.9783C39.2979 33.3384 39.6076 33.6315 39.9882 33.6315C40.3688 33.6315 40.6785 33.3384 40.6785 32.9783V32.3251Z" fill="#8E2A2A"/>
<path d="M51.3818 33.6315C51.0012 33.6315 50.6914 33.3384 50.6914 32.9783V27.2955C50.6914 26.9354 51.0012 26.6423 51.3818 26.6423C51.7623 26.6423 52.0721 26.9354 52.0721 27.2955V32.9783C52.0721 33.3384 51.7623 33.6315 51.3818 33.6315Z" fill="#80BC00"/>
<path d="M62.9451 31.7155C62.9451 31.8578 62.9062 32.0655 62.7203 32.2363C62.5008 32.439 62.1326 32.5445 61.6512 32.5445C61.6246 32.5445 61.5963 32.5445 61.5697 32.5428C61.568 32.5428 61.5662 32.5428 61.5662 32.5428C61.5609 32.5428 61.5556 32.5428 61.5503 32.5428C61.1786 32.5428 60.8723 32.8259 60.8635 33.1793C60.8546 33.5394 61.1555 33.8392 61.5361 33.8492C61.5379 33.8492 61.5379 33.8492 61.5397 33.8492C61.5786 33.8509 61.6158 33.8509 61.6529 33.8509C62.7221 33.8509 63.3469 33.4841 63.6868 33.1709C64.101 32.7891 64.3276 32.2715 64.3276 31.7155H62.9451Z" fill="#0082CA"/>
<path d="M61.6528 26.525H61.651C61.6422 26.525 61.6333 26.525 61.6227 26.5234C61.628 26.5234 61.6333 26.5234 61.6386 26.5234C61.6546 26.5234 61.6705 26.5234 61.6864 26.525C61.5643 26.5167 61.4439 26.5133 61.3289 26.5133C59.8473 26.5133 58.8259 27.1849 58.7888 28.632C58.7764 29.0893 58.9304 29.7374 59.7322 30.2232C60.1075 30.4509 60.5801 30.6184 61.2191 30.7491H61.2209C61.2227 30.7491 61.2244 30.7491 61.2262 30.7491C61.274 30.7591 61.3218 30.7625 61.3678 30.7625C61.6864 30.7625 61.9714 30.5531 62.0422 30.2483C62.1237 29.8949 61.8865 29.5482 61.513 29.4711C61.5112 29.4711 61.5112 29.4711 61.5112 29.4711C60.1553 29.1931 60.1571 28.7158 60.2031 28.3741C60.2544 27.9972 60.596 27.7778 61.4935 27.8231C61.5289 27.8281 61.5643 27.8298 61.6015 27.8298C61.9803 27.8298 62.3007 27.5668 62.329 27.2235C62.3573 26.8634 62.0546 26.5502 61.6528 26.525Z" fill="#0082CA"/>
<path d="M61.5889 27.8281C61.9517 27.8532 62.4173 28.0023 62.9713 28.2753C63.3094 28.4411 63.7272 28.3155 63.9024 27.9956C64.0777 27.6757 63.9449 27.2804 63.6068 27.1146C62.874 26.7562 62.2473 26.5635 61.688 26.525H61.6862C61.6703 26.5233 61.6544 26.5233 61.6384 26.5233L61.5889 27.8281Z" fill="#E7004C"/>
<path d="M61.509 29.4711H61.5108C61.8825 29.5482 62.1197 29.8949 62.0401 30.2483C61.9693 30.5548 61.6843 30.7625 61.3657 30.7625C61.3179 30.7625 61.2719 30.7574 61.2241 30.7491C62.9446 31.0891 62.9446 31.543 62.9446 31.7138C62.9446 31.3537 63.2544 31.0606 63.635 31.0606C64.0155 31.0606 64.3253 31.3537 64.3253 31.7138C64.3253 31.2616 64.1624 30.6218 63.3907 30.1277C62.9464 29.8463 62.3481 29.6369 61.509 29.4711ZM61.2188 30.7491C61.2205 30.7491 61.2223 30.7507 61.2241 30.7507C61.2223 30.7491 61.2205 30.7491 61.2188 30.7491Z" fill="#80BC00"/>
<path d="M58.662 32.0889C58.4531 32.3904 58.5416 32.7957 58.8602 32.9934C59.5169 33.4004 60.3471 33.8208 61.5349 33.8492C61.5366 33.8492 61.5366 33.8492 61.5384 33.8492C61.5366 33.8492 61.5366 33.8492 61.5349 33.8492L61.5667 32.5428C60.7295 32.5211 60.1365 32.2213 59.6196 31.9014C59.2992 31.7037 58.8708 31.7875 58.662 32.0889Z" fill="#FAA21B"/>
<path d="M63.6357 31.0623C63.2551 31.0623 62.9453 31.3554 62.9453 31.7155C62.9453 32.0756 63.2551 32.3687 63.6357 32.3687C64.0162 32.3687 64.326 32.0756 64.326 31.7155C64.326 31.3537 64.018 31.0623 63.6357 31.0623Z" fill="#00754A"/>
<path d="M61.5484 32.5428C61.1767 32.5428 60.8704 32.8259 60.8616 33.1793C60.851 33.5394 61.1537 33.8392 61.5342 33.8493C61.536 33.8493 61.536 33.8493 61.5378 33.8493C61.5431 33.8493 61.5484 33.8493 61.5537 33.8493C61.9272 33.8493 62.2334 33.5679 62.2441 33.2128C62.2547 32.8527 61.952 32.5529 61.5714 32.5428C61.5696 32.5428 61.5679 32.5428 61.5679 32.5428C61.5608 32.5428 61.5555 32.5428 61.5484 32.5428Z" fill="#5D6339"/>
<path d="M61.366 29.4577C61.0456 29.4577 60.7588 29.6688 60.6916 29.9769C60.6137 30.3287 60.8509 30.672 61.2191 30.7491H61.2208C61.2226 30.7491 61.2244 30.7491 61.2261 30.7491C61.2739 30.7591 61.3217 30.7625 61.3678 30.7625C61.6864 30.7625 61.9714 30.5531 62.0422 30.2483C62.1236 29.8949 61.8864 29.5482 61.5129 29.4711C61.5111 29.4711 61.5111 29.4711 61.5111 29.4711C61.5094 29.4711 61.5094 29.4711 61.5076 29.4711C61.4598 29.4611 61.412 29.4577 61.366 29.4577Z" fill="#00754A"/>
<path d="M61.6388 26.5233C61.2794 26.5233 60.9767 26.7863 60.952 27.1297C60.9236 27.5065 61.2387 27.8298 61.6405 27.8298C61.9999 27.8298 62.3026 27.5668 62.3291 27.2234C62.3557 26.8633 62.0707 26.5501 61.6901 26.525C61.6883 26.525 61.6883 26.525 61.6883 26.525C61.6706 26.5233 61.6547 26.5233 61.6388 26.5233Z" fill="#C028B9"/>
<path d="M71.3818 33.6315C71.0012 33.6315 70.6914 33.3384 70.6914 32.9783V27.2955C70.6914 26.9354 71.0012 26.6423 71.3818 26.6423C71.7623 26.6423 72.0721 26.9354 72.0721 27.2955V32.9783C72.0721 33.3384 71.7623 33.6315 71.3818 33.6315Z" fill="#80BC00"/>
<path d="M76.2245 33.6315C75.8439 33.6315 75.5342 33.3384 75.5342 32.9783V27.2955C75.5342 26.9354 75.8439 26.6423 76.2245 26.6423C76.6051 26.6423 76.9149 26.9354 76.9149 27.2955V32.9783C76.9149 33.3384 76.6051 33.6315 76.2245 33.6315Z" fill="#0082CA"/>
<path d="M76.2248 30.7893H71.3818C71.0012 30.7893 70.6914 30.4961 70.6914 30.136C70.6914 29.776 71.0012 29.4828 71.3818 29.4828H76.2248C76.6054 29.4828 76.9151 29.776 76.9151 30.136C76.9151 30.4978 76.6054 30.7893 76.2248 30.7893Z" fill="#E7004C"/>
<path d="M72.0721 29.4828H71.3818C71.0012 29.4828 70.6914 29.776 70.6914 30.136C70.6914 30.4961 71.0012 30.7893 71.3818 30.7893H72.0721V29.4828Z" fill="#8E2A2A"/>
<path d="M76.2245 29.4828H75.5342V30.7893H76.2245C76.6051 30.7893 76.9149 30.4961 76.9149 30.136C76.9149 29.776 76.6051 29.4828 76.2245 29.4828Z" fill="#C028B9"/>
<path d="M52.1788 2.39844H47.1252C44.8311 2.39844 42.9707 4.15203 42.9707 6.32267V18.1389C42.9707 20.3096 44.8311 22.0699 47.1252 22.0699L53.1843 21.8789C53.1843 21.8789 61.0383 20.735 61.0383 12.3137C61.0383 3.24425 52.1788 2.39844 52.1788 2.39844ZM51.2832 15.6668C49.7095 15.6668 48.4333 14.4592 48.4333 12.9686C48.4333 12.1831 48.7873 11.4763 49.3537 10.9839L51.2849 9.15824L53.2161 10.9855C53.7826 11.4779 54.1366 12.1847 54.1366 12.9703C54.1348 14.4592 52.8586 15.6668 51.2832 15.6668Z" fill="#FAA21B"/>
<path d="M51.2837 1.74185H47.1328C47.1292 1.74185 47.1275 1.74185 47.1239 1.74185C44.451 1.74185 42.2773 3.79525 42.2773 6.32097V18.1372C42.2773 20.6663 44.451 22.723 47.1239 22.723C47.1275 22.723 47.1328 22.723 47.1363 22.723V22.7264H51.2819C57.0259 22.7264 61.6831 18.3198 61.6831 12.8848V11.5851C61.6867 6.14845 57.0295 1.74185 51.2837 1.74185ZM60.2918 12.8781C60.2918 17.5862 56.2595 21.4133 51.2837 21.4133H47.1186C45.214 21.4099 43.6633 19.9411 43.6633 18.1372V6.32097C43.6633 4.52215 45.2104 3.05831 47.1151 3.05161H51.2837V3.065C56.2595 3.065 60.2918 6.88037 60.2918 11.5885V12.8781Z" fill="black"/>
<path d="M53.6949 10.5132L51.7743 8.6943C51.5035 8.43804 51.0663 8.43804 50.7954 8.6943L48.8731 10.5115C48.1527 11.1446 47.7402 12.039 47.7402 12.9686C47.7402 14.8176 49.3298 16.3217 51.284 16.3217C53.2382 16.3217 54.8278 14.8176 54.8278 12.9686C54.8278 12.039 54.4153 11.1446 53.6949 10.5132ZM51.284 15.0119C50.0945 15.0119 49.1262 14.0958 49.1262 12.9686C49.1262 12.3991 49.3811 11.8514 49.8237 11.4662C49.8307 11.4595 49.8378 11.4545 49.8449 11.4478L51.2858 10.0844L52.7266 11.4478C52.7337 11.4545 52.7408 11.4595 52.7479 11.4662C53.1975 11.8581 53.4453 12.3908 53.4453 12.9686C53.4435 14.0958 52.4753 15.0119 51.284 15.0119Z" fill="black"/>
<path d="M9.0013 6.32937C9.0013 4.15873 7.14091 2.39844 4.84684 2.39844C2.55277 2.39844 0.692383 4.15203 0.692383 6.32267V18.1389C0.692383 20.3096 2.55277 22.0699 4.84684 22.0699C7.14091 22.0699 9.0013 20.3096 9.0013 18.1389C9.0013 18.1255 9.0013 6.3411 9.0013 6.32937Z" fill="#FAA21B"/>
<path d="M17.0002 12.2299C17.5029 11.9754 17.9684 11.6504 18.3791 11.2619C19.4925 10.2084 20.1067 8.80649 20.1067 7.31418C20.1067 5.82354 19.4925 4.42166 18.3791 3.36649C17.2657 2.31299 15.7841 1.73181 14.2087 1.73181C14.2087 1.73181 14.2087 1.73181 14.2069 1.73181C12.6315 1.73181 11.15 2.31299 10.0366 3.36649C9.72324 3.66294 9.44887 3.99122 9.21699 4.34294C8.43283 2.80708 6.76892 1.74186 4.84657 1.74186C2.1737 1.74186 0 3.79694 0 6.32098V18.1372C0 20.6663 2.1737 22.723 4.84657 22.723C6.77069 22.723 8.43637 21.6578 9.21876 20.1169C9.45064 20.467 9.72324 20.7953 10.0366 21.09C11.15 22.1435 12.6315 22.7247 14.2069 22.7247C14.2069 22.7247 14.2069 22.7247 14.2087 22.7247C15.7841 22.7247 17.2657 22.1435 18.3791 21.09C19.4943 20.0349 20.1067 18.633 20.1067 17.1424C20.1067 15.6517 19.4925 14.2498 18.3791 13.1947C17.9684 12.8094 17.5029 12.4862 17.0002 12.2299ZM11.0154 4.29605C11.8686 3.48876 13.0015 3.04492 14.2069 3.04492C15.4124 3.04492 16.5453 3.48876 17.3985 4.29605C18.2517 5.10334 18.7207 6.17526 18.7207 7.31753C18.7207 8.45812 18.2517 9.53171 17.3985 10.339C16.6338 11.0626 15.6142 11.4997 14.5415 11.5767L9.69669 11.5717V7.52354C9.69669 7.51516 9.69669 7.50511 9.69669 7.49674C9.64536 6.30255 10.1251 5.13684 11.0154 4.29605ZM8.30892 18.1372C8.30892 19.9444 6.75653 21.4133 4.84657 21.4133C2.93839 21.4133 1.38423 19.9444 1.38423 18.1372V6.32098C1.38423 4.51881 2.93839 3.05161 4.84657 3.05161C6.75476 3.05161 8.30892 4.52048 8.30892 6.32767V18.1372ZM17.3985 20.1655C16.547 20.9728 15.4124 21.4166 14.2069 21.4166C13.0015 21.4166 11.8669 20.9728 11.0154 20.1655C10.1268 19.3247 9.64536 18.159 9.69846 16.9682C9.69846 16.9598 9.69846 16.9497 9.69846 16.9414V12.8932C9.69846 12.8932 14.5397 12.8865 14.5397 12.8882C15.6124 12.9619 16.6338 13.399 17.4002 14.1242C18.2534 14.9315 18.7225 16.0034 18.7225 17.1457C18.7225 18.2863 18.2517 19.3582 17.3985 20.1655Z" fill="black"/>
<path d="M30.4953 11.5784C28.2012 11.5784 26.3408 13.332 26.3408 15.5027V18.1372C26.3408 20.3079 28.2012 22.0682 30.4953 22.0682C32.7893 22.0682 34.6497 20.3079 34.6497 18.1372C34.6497 18.1238 34.6497 15.5211 34.6497 15.5094C34.6497 13.3387 32.7893 11.5784 30.4953 11.5784Z" fill="#FAA21B"/>
<path d="M26.966 9.21015L29.8743 10.7745C30.2585 10.9805 30.7328 10.9805 31.117 10.7745L34.0235 9.21015C34.4076 9.00415 34.6448 8.6206 34.6448 8.2069V5.07823C34.6448 4.66454 34.4076 4.28099 34.0235 4.07498L31.117 2.51065C30.7328 2.30464 30.2585 2.30464 29.8743 2.51065L26.966 4.07498C26.5819 4.28099 26.3447 4.66454 26.3447 5.07823V8.2069C26.3447 8.6206 26.5819 9.00415 26.966 9.21015Z" fill="#FAA21B"/>
<path d="M37.3441 8.93035C36.3617 8.93035 35.4164 9.32059 34.7473 10.0023L33.0462 11.6118C32.6869 11.4008 32.2957 11.2316 31.8833 11.1144L34.365 9.77783C34.965 9.45626 35.3368 8.8533 35.3368 8.20512V5.07813C35.3368 4.42995 34.9633 3.827 34.365 3.50542L33.6622 3.1269L34.9703 0.981381C35.1615 0.668179 35.0482 0.267883 34.7172 0.0869965C34.3862 -0.0938902 33.9631 0.013302 33.772 0.326504L32.4586 2.47872L31.4567 1.93941C30.8619 1.61951 30.1238 1.61951 29.529 1.93941L28.5271 2.47872L27.2137 0.326504C27.0225 0.013302 26.5995 -0.0938902 26.2685 0.0869965C25.9374 0.267883 25.8259 0.669854 26.0171 0.983056L27.3252 3.12857L26.6225 3.50709C26.0224 3.82867 25.6507 4.43163 25.6507 5.0798V8.2068C25.6507 8.85498 26.0224 9.45626 26.6225 9.77951L29.106 11.1161C28.6917 11.2333 28.3023 11.4008 27.9412 11.6118L26.2401 10.0023C25.571 9.32059 24.6258 8.93035 23.6434 8.93035C21.6892 8.93035 20.0996 10.4344 20.0996 12.2834C20.0996 14.1325 21.6892 15.6366 23.6434 15.6366C24.3727 15.6366 25.0807 15.4205 25.6719 15.0302C25.6542 15.1843 25.6471 15.3418 25.6471 15.5009V18.1371C25.6471 20.6662 27.8209 22.723 30.4937 22.723C33.1666 22.723 35.3403 20.6662 35.3403 18.1371V15.5093C35.3403 15.3485 35.3314 15.1877 35.3137 15.0319C35.905 15.4222 36.613 15.6382 37.3423 15.6382C39.2965 15.6382 40.8861 14.1342 40.8861 12.2851C40.8878 10.4361 39.2983 8.93035 37.3441 8.93035ZM27.0331 18.1371V15.516H33.9578V18.1371H27.0331ZM27.3181 14.2045C27.8509 13.0455 29.0741 12.2332 30.4937 12.2332C31.9134 12.2332 33.1347 13.0455 33.6675 14.2045H27.3181ZM27.0367 8.2068V5.07813C27.0367 4.90059 27.1411 4.73478 27.3075 4.64434L30.2158 3.08C30.3026 3.0331 30.3981 3.00966 30.4955 3.00966C30.5929 3.00966 30.6884 3.0331 30.7752 3.07833L33.6817 4.64266C33.8481 4.7331 33.9525 4.89892 33.9525 5.07645V8.2068C33.9525 8.38434 33.8481 8.55015 33.6799 8.64059L30.7734 10.2049C30.6017 10.297 30.3875 10.297 30.214 10.2049L27.3057 8.64059C27.1411 8.55015 27.0367 8.38434 27.0367 8.2068ZM25.2329 13.6669C24.824 14.0856 24.2452 14.3268 23.6451 14.3268C22.4539 14.3268 21.4856 13.4106 21.4856 12.2851C21.4856 11.1579 22.4539 10.2418 23.6451 10.2418C24.2558 10.2418 24.8187 10.4763 25.2329 10.9017C25.24 10.9084 25.2453 10.9151 25.2524 10.9218L26.6933 12.2851L25.2524 13.6485C25.2471 13.6535 25.24 13.6602 25.2329 13.6669ZM30.4937 21.4132C29.0776 21.4132 27.8563 20.6042 27.3217 19.4486H33.6658C33.1312 20.6042 31.9116 21.4132 30.4937 21.4132ZM37.3441 14.3268C36.7422 14.3268 36.1634 14.0856 35.7563 13.6669C35.7492 13.6602 35.7439 13.6535 35.7368 13.6468L34.2959 12.2834L35.7368 10.9201C35.7439 10.9134 35.7492 10.9067 35.7563 10.9C36.1705 10.4746 36.7334 10.2401 37.3441 10.2401C38.5354 10.2401 39.5036 11.1563 39.5036 12.2834C39.5036 13.4106 38.5354 14.3268 37.3441 14.3268Z" fill="black"/>
<path d="M29.1109 5.67783C28.7285 5.67783 28.417 5.97093 28.417 6.33438C28.417 6.69615 28.7268 6.99093 29.1109 6.99093C29.4932 6.99093 29.8048 6.69783 29.8048 6.33438C29.803 5.97093 29.4932 5.67783 29.1109 5.67783Z" fill="black"/>
<path d="M31.8853 6.98925C32.2676 6.98925 32.5792 6.69615 32.5792 6.3327C32.5792 5.97093 32.2694 5.67615 31.8853 5.67615C31.5029 5.67615 31.1914 5.96925 31.1914 6.3327C31.1932 6.69615 31.5029 6.98925 31.8853 6.98925Z" fill="black"/>
<path d="M69.9994 21.6629C66.792 21.6629 64.1846 19.1941 64.1846 16.1592C64.1846 15.1158 65.0785 14.27 66.1813 14.27C67.284 14.27 68.1779 15.1158 68.1779 16.1592C68.1779 17.1106 68.9957 17.8827 69.9994 17.8827C71.0031 17.8827 71.8208 17.1089 71.8208 16.1592C71.8208 15.2096 71.0031 14.4358 69.9994 14.4358C68.8966 14.4358 68.0027 13.59 68.0027 12.5465C68.0027 11.5031 68.8966 10.6573 69.9994 10.6573C73.2068 10.6573 75.8142 13.126 75.8142 16.1592C75.8142 19.1941 73.2051 21.6629 69.9994 21.6629Z" fill="#FAA21B"/>
<path d="M69.9987 22.7515C68.172 22.7515 66.4461 22.0866 65.1398 20.8773C63.8387 19.6731 63.0953 18.0652 63.0475 16.3451C63.0439 16.2932 63.0439 16.2413 63.0439 16.1894C63.0439 16.186 63.0439 16.1827 63.0439 16.1793C63.0439 16.176 63.0439 16.1726 63.0439 16.1676C63.0439 16.1559 63.0439 16.1441 63.0457 16.1324C63.0723 14.749 64.1131 13.5916 65.4885 13.2968C63.9467 12.0457 63.0457 10.2251 63.0457 8.30236C63.0457 4.6729 66.1664 1.72177 70.0005 1.72177C73.8363 1.72177 76.9553 4.67458 76.9553 8.30236C76.9553 8.31744 76.9553 8.33251 76.9535 8.34758C76.9287 9.72433 75.9074 10.8766 74.5426 11.1815C76.049 12.4108 76.9553 14.2197 76.9553 16.1659C76.9535 19.8004 73.8328 22.7515 69.9987 22.7515ZM64.4264 16.1977C64.4264 16.2262 64.4282 16.2547 64.4299 16.2832C64.4299 16.2899 64.4299 16.2965 64.4299 16.3032C64.4653 17.6833 65.0619 18.9747 66.1062 19.9411C67.1524 20.9092 68.5348 21.4418 69.997 21.4418C73.0681 21.4418 75.5675 19.0768 75.5675 16.1709C75.5675 14.069 74.2505 12.1697 72.2131 11.3339L69.1916 10.1163C68.4216 9.81143 67.9224 9.0996 67.9224 8.30739C67.9224 7.22542 68.8535 6.34443 69.997 6.34443C71.1405 6.34443 72.0715 7.22542 72.0715 8.30739C72.0733 9.21684 72.8575 9.95714 73.8186 9.95714C74.7798 9.95714 75.564 9.21684 75.5657 8.30739C75.5657 8.29566 75.5657 8.28394 75.5675 8.27221C75.5463 5.38305 73.0557 3.03822 69.997 3.03822C66.9258 3.03822 64.4264 5.40315 64.4264 8.30906C64.4264 10.0325 65.3345 11.6555 66.8568 12.652C66.9966 12.7374 67.3896 12.9686 67.6516 13.0808C68.018 13.2382 71.0059 14.4793 71.036 14.491C71.0732 14.5061 71.1068 14.5245 71.1404 14.5446C71.721 14.9098 72.068 15.5211 72.068 16.181C72.068 17.263 71.1369 18.1439 69.9934 18.1439C68.8605 18.1439 67.9507 17.3048 67.9206 16.2312C67.9206 16.2229 67.9206 16.2145 67.9206 16.2061V16.1894C67.9171 15.2799 67.1347 14.5413 66.1735 14.5413C65.2176 14.5413 64.4353 15.2765 64.4264 16.1793C64.4264 16.1843 64.4264 16.1894 64.4264 16.1961C64.4282 16.1944 64.4282 16.1961 64.4264 16.1977ZM69.3066 16.2095C69.3243 16.5595 69.6235 16.8308 69.9952 16.8308C70.3758 16.8308 70.6855 16.5377 70.6855 16.1776C70.6855 15.975 70.5864 15.784 70.4165 15.6601C70.2306 15.5831 69.6872 15.3569 69.0907 15.1091C69.2305 15.444 69.3066 15.8092 69.3066 16.191C69.3066 16.1977 69.3066 16.2028 69.3066 16.2095ZM69.9987 7.65251C69.6182 7.65251 69.3084 7.94561 69.3084 8.30571C69.3084 8.57034 69.4748 8.8065 69.7314 8.90867L70.9033 9.38098C70.7652 9.04768 70.6891 8.68591 70.6873 8.30739C70.6891 7.94561 70.3793 7.65251 69.9987 7.65251Z" fill="black"/>
</g>
<defs>
<clipPath id="clip0_3703_6861">
<rect width="77" height="34" fill="white"/>
</clipPath>
</defs>
</svg>
