<svg width="24" height="24" viewBox="0 0 24 24" fill="none" xmlns="http://www.w3.org/2000/svg">
<g clip-path="url(#clip0_3363_27575)">
<path d="M21.672 4.65186H20.3441V8.63576H23V5.97982C23 5.24634 22.4055 4.65186 21.672 4.65186Z" fill="#FFA436"/>
<path d="M21.672 5.97975L17.6881 11.2916H1V3.32382C1 2.59034 1.59449 1.99585 2.32797 1.99585H8.79384C9.1462 1.99585 9.48394 2.13573 9.73316 2.38494L12 4.65179H20.3441C21.0775 4.65179 21.672 5.24627 21.672 5.97975Z" fill="#FFBC2B"/>
<path d="M20.3441 5.97998L17.6881 9.2999H21.672V5.97998H20.3441Z" fill="#8AE7FF"/>
<path d="M20.3441 5.97998V12.6198L2.32796 7.30795V5.97998H20.3441Z" fill="#BDF2FF"/>
<path d="M2.32796 7.30762H15.2061V11.2915H2.32796V7.30762Z" fill="white"/>
<path d="M21.672 7.30762L20.3441 8.63558V22.0038H21.672C22.4055 22.0038 23 21.4093 23 20.6758V8.63558C23 7.9021 22.4055 7.30762 21.672 7.30762Z" fill="#FFBC2B"/>
<path d="M21.672 7.30762V20.6758C21.672 21.4093 21.0775 22.0038 20.3441 22.0038H2.32797C1.59449 22.0038 1 21.4093 1 20.6758V11.2915C1 10.558 1.59449 9.96355 2.32797 9.96355H12L14.2668 7.69671C14.5161 7.4475 14.8538 7.30762 15.2062 7.30762H21.672Z" fill="#FFCF66"/>
</g>
<defs>
<clipPath id="clip0_3363_27575">
<rect width="22" height="22" fill="white" transform="translate(1 1)"/>
</clipPath>
</defs>
</svg>
