<svg width="24" height="24" viewBox="0 0 24 24" fill="none" xmlns="http://www.w3.org/2000/svg">
<g clip-path="url(#clip0_3584_28385)">
<g clip-path="url(#clip1_3584_28385)">
<path d="M13.812 0.609997C13.6934 0.513622 13.5372 0.476778 13.388 0.510012L0.388054 3.51001C0.159257 3.56261 -0.00218085 3.76726 2.22753e-05 4.00201V21.002C0.000116025 21.2487 0.180163 21.4585 0.424007 21.496L13.424 23.4961C13.6969 23.538 13.9522 23.3508 13.9942 23.0779C13.998 23.0528 14 23.0275 14 23.0021V1.00201C14.0005 0.849528 13.9312 0.7052 13.812 0.609997Z" fill="#1565C0"/>
<path d="M23.5 21.5019H13.5C13.2239 21.5019 13 21.2781 13 21.0019C13 20.7258 13.2239 20.5019 13.5 20.5019H23V3.50194H13.5C13.2239 3.50194 13 3.27806 13 3.00192C13 2.72578 13.2239 2.50195 13.5 2.50195H23.5C23.7761 2.50195 24 2.72583 24 3.00197V21.002C24 21.2781 23.7762 21.5019 23.5 21.5019Z" fill="#1565C0"/>
<path d="M8.49981 16.5021C8.27701 16.5019 8.08131 16.3542 8.01981 16.1401L6.4998 10.8221L4.97978 16.1401C4.87 16.4054 4.56587 16.5316 4.30047 16.4218C4.17287 16.369 4.07153 16.2677 4.01875 16.1401L2.01878 9.1401C1.93506 8.87694 2.08056 8.59578 2.34372 8.51207C2.60687 8.42835 2.88803 8.57385 2.97175 8.837C2.9747 8.84628 2.97737 8.85566 2.97981 8.86508L4.49978 14.1821L6.0198 8.8641C6.12958 8.59874 6.4337 8.4726 6.69911 8.58238C6.8267 8.63516 6.92805 8.7365 6.98083 8.8641L8.49981 14.1821L10.0198 8.86513C10.0918 8.60197 10.3635 8.44696 10.6266 8.51891C10.6304 8.51994 10.6341 8.52102 10.6378 8.5221C10.9031 8.59813 11.0567 8.87474 10.9808 9.1401L8.9808 16.1401C8.9192 16.3546 8.72294 16.5023 8.49981 16.5021Z" fill="#FAFAFA"/>
<path d="M21.5 6.50198H13.5C13.2239 6.50198 13 6.27811 13 6.00197C13 5.72583 13.2239 5.50195 13.5 5.50195H21.5C21.7762 5.50195 22 5.72583 22 6.00197C22 6.27816 21.7762 6.50198 21.5 6.50198Z" fill="#1565C0"/>
<path d="M21.5 9.50198H13.5C13.2239 9.50198 13 9.27811 13 9.00197C13 8.72583 13.2239 8.50195 13.5 8.50195H21.5C21.7762 8.50195 22 8.72583 22 9.00197C22 9.27811 21.7762 9.50198 21.5 9.50198Z" fill="#1565C0"/>
<path d="M21.5 12.502H13.5C13.2239 12.502 13 12.2781 13 12.002C13 11.7258 13.2239 11.502 13.5 11.502H21.5C21.7762 11.502 22 11.7258 22 12.002C22 12.2782 21.7762 12.502 21.5 12.502Z" fill="#1565C0"/>
<path d="M21.5 15.502H13.5C13.2239 15.502 13 15.2781 13 15.002C13 14.7258 13.2239 14.502 13.5 14.502H21.5C21.7762 14.502 22 14.7258 22 15.002C22 15.2782 21.7762 15.502 21.5 15.502Z" fill="#1565C0"/>
<path d="M21.5 18.502H13.5C13.2239 18.502 13 18.2781 13 18.002C13 17.7258 13.2239 17.502 13.5 17.502H21.5C21.7762 17.502 22 17.7258 22 18.002C22 18.2782 21.7762 18.502 21.5 18.502Z" fill="#1565C0"/>
</g>
</g>
<defs>
<clipPath id="clip0_3584_28385">
<rect width="24" height="24" fill="white"/>
</clipPath>
<clipPath id="clip1_3584_28385">
<rect width="24" height="24" fill="white"/>
</clipPath>
</defs>
</svg>
